<svg xmlns="http://www.w3.org/2000/svg" viewBox="0 0 377.05 416.11"><defs><style>.cls-1{fill:#cfe4ff;}.cls-2{fill:#f2f0eb;}.cls-10,.cls-17,.cls-21,.cls-26,.cls-3,.cls-30,.cls-33,.cls-34,.cls-36,.cls-37,.cls-39,.cls-43,.cls-5{fill:none;}.cls-3{stroke:#dcd8da;}.cls-10,.cls-17,.cls-26,.cls-3,.cls-30,.cls-33,.cls-34,.cls-36,.cls-37,.cls-39,.cls-43{stroke-miterlimit:10;}.cls-4{fill:#f5aa8a;}.cls-5{stroke:#cb8469;}.cls-21,.cls-5{stroke-linecap:round;stroke-linejoin:round;}.cls-6{fill:#93b3c5;}.cls-7{fill:#a1c4da;}.cls-8{fill:#b3d9ed;}.cls-9{fill:#63363b;}.cls-10{stroke:#855e59;stroke-width:0.95px;}.cls-11{fill:#363b4e;}.cls-12{fill:#3e4858;}.cls-13{fill:#fff;}.cls-14{fill:#a4273b;}.cls-15{fill:#bd273b;}.cls-16{fill:#b77e20;}.cls-17{stroke:#59636d;stroke-width:1.02px;}.cls-18{fill:#411b00;}.cls-19{fill:#592221;}.cls-20{fill:#d27d73;}.cls-21{stroke:#d3ecfe;stroke-width:2.16px;}.cls-22{fill:#d3ecfe;}.cls-23{fill:#b1d7de;}.cls-24{fill:#dcd8da;}.cls-25{fill:#e9dbda;}.cls-26{stroke:#d8bbbd;}.cls-27{fill:#433431;}.cls-28{fill:#563e3e;}.cls-29{fill:#6e5550;}.cls-30{stroke:#dc8c7a;stroke-width:1.03px;}.cls-31{fill:#e49e80;}.cls-32{fill:#448294;}.cls-33,.cls-34{stroke:#30a1b6;}.cls-34{stroke-dasharray:3.05 2.03;}.cls-35{fill:#4c96a6;}.cls-36,.cls-37{stroke:#6bbaca;}.cls-37{stroke-dasharray:3.04 2.03;}.cls-38{fill:#d1933d;}.cls-39{stroke:#a16529;}.cls-40{fill:#8db1cc;}.cls-41{fill:#88a5bd;}.cls-42{fill:#303a7d;}.cls-43{stroke:#5f6da2;}.cls-44{fill:#592c30;}.cls-45{fill:#522c31;}.cls-46{fill:#957765;}.cls-47{fill:#ae8b76;}.cls-48{fill:#f3f3f3;}.cls-49{fill:#d7d7d7;}.cls-50{fill:#fbfbfb;}.cls-51{fill:#eee;}.cls-52{fill:#323d67;}.cls-53{fill:#dba990;}.cls-54{fill:#212a3f;}.cls-55{fill:#43528b;}.cls-56{fill:#344163;}.cls-57{fill:#481609;}.cls-58{fill:#954331;}</style></defs><g id="Layer_2" data-name="Layer 2"><g id="OBJECTS"><path class="cls-1" d="M350.34,106.58c-32.48-48-114.07-124.06-238.2-75S2.17,165.47,7.7,198.35s12.89,75.51,61.54,107.37,103.1,32.77,161.33,30,125.17-36.44,138-82S382.81,154.57,350.34,106.58Z"/><path class="cls-2" d="M167.46,108.47s-12.65,8-12.07,9.48,3.74,6.33,3.74,6.33,9,17.45,20.69,20.69c15.52,4.31,21.56-4.31,26.45-13.22s5.75-69.27,4-70.14-10.92,4-13.8,16.1-5.17,35.93-6.89,37.37-16.39-2.88-16.39-2.88Z"/><path class="cls-3" d="M159.31,123.63s2.87.94,7.15-.73a9.64,9.64,0,0,0,6.23-9.68"/><path class="cls-4" d="M133.26,104.16s-9.58-1.54-9.58,1.53,3.06,4.21,5,4.21,1.91,1.92,5.36,1.92,6.52,1.15,11.5.77S155.87,116,155.87,116s1.92,4.31,8.72-.1c1.86-1.21,3.45-2.87,3.16-4.89s-2.47-8.85-4.22-10.34C160.85,98.41,133.26,104.16,133.26,104.16Z"/><path class="cls-5" d="M130.09,109.81s-.57-1.44,5.18-1.73,14.08-.86,14.08-.86"/><ellipse class="cls-6" cx="142.74" cy="101.25" rx="37.13" ry="7.59"/><path class="cls-7" d="M167.46,73.5c-11.08-8.81-24.72-7.68-24.72-7.68S129.1,64.69,118,73.5s-10.23,27-10.23,27,7,5.68,35,5.68,34.95-5.68,34.95-5.68S178.54,82.31,167.46,73.5Z"/><path class="cls-8" d="M159.16,71.55a34.9,34.9,0,0,0-13.84-5.76c-.69,0-1.27,0-1.69,0a34,34,0,0,1,8.8,6c11.35,10.8,10.48,33.07,10.48,33.07h0a52.55,52.55,0,0,0,11.84-2.9C173.84,96.5,170.23,79.29,159.16,71.55Z"/><path class="cls-8" d="M143.69,65.78l-.95,0-.34,0a34.75,34.75,0,0,1,2.77,4.53c5.53,10.79,5.25,29,4.93,35.7,1.87-.07,3.6-.18,5.23-.3-.2-7.51-1.35-25.26-7.55-34.88A29.17,29.17,0,0,0,143.69,65.78Z"/><path class="cls-6" d="M144.92,64.53c0-3.05-.41-5.52-2.18-5.52s-2.19,2.47-2.19,5.52c0,1.21,0,2.32.06,3.23a14.19,14.19,0,0,0,4.25,0A30,30,0,0,0,144.92,64.53Z"/><path class="cls-9" d="M199.76,325.86a37.32,37.32,0,0,0,9,1.77c5.14.38,12.42-1.33,12.42-1.33s2,11.26,1.18,17.92c-.41,3.34-2.57,3.94-6.94,6.74-2.74,1.77-6.48,5.59-10.77,7.83-4.55,2.36-16.26,2.32-20.92.1-9.79-4.66-6.22-9.78-.47-13.94a49.37,49.37,0,0,0,7.38-6.76C195.86,331.82,199.76,325.86,199.76,325.86Z"/><path class="cls-10" d="M207.11,334.76A20.27,20.27,0,0,0,197,332.57"/><path class="cls-10" d="M203.54,339.88a20.2,20.2,0,0,0-10.11-2.18"/><path class="cls-10" d="M221.76,342.05a50.66,50.66,0,0,0-9.73,6.49c-3.95,3.59-7.25,8.13-12.43,9.43s-16.68.8-21.85-3.78"/><path class="cls-11" d="M194.17,229c-.18-11.84-1.43-42.89.71-47.73,1.84-4.18,18.14-9.19,26-5.47s13.81,16.7,13.81,16.7-.72,18.13-3.43,29.21-7.85,33.16-7.85,33.16,5,13.17,4,25.28c-1.36,17.52-6.33,45.79-6.33,45.79a28.08,28.08,0,0,1-10.67,1.71,46.9,46.9,0,0,1-11-1.34s.22-17.71-1.82-39.47C196.89,278.51,194.34,240.86,194.17,229Z"/><path class="cls-9" d="M251.21,330.07a37.73,37.73,0,0,0,9,1.32c5.15.12,12.34-1.95,12.34-1.95s2.54,11.16,2.06,17.85c-.24,3.35-2.38,4.06-6.6,7.07-2.65,1.9-6.2,5.9-10.37,8.35-4.43,2.59-16.12,3.13-20.89,1.14-10-4.17-6.69-9.46-1.15-13.9a49.86,49.86,0,0,0,7-7.12C247.6,336.21,251.21,330.07,251.21,330.07Z"/><path class="cls-10" d="M259,338.59a20.37,20.37,0,0,0-10.21-1.69"/><path class="cls-10" d="M255.68,343.88a20.21,20.21,0,0,0-10.21-1.68"/><path class="cls-10" d="M274,345.15a51,51,0,0,0-9.4,7c-3.76,3.78-6.84,8.48-11.94,10s-16.62,1.62-22-2.7"/><path class="cls-11" d="M231.43,230.89c-2-31.91-.46-41.31,1.43-46.26,1.63-4.26,19.28-8.91,27.33-5.59s14.62,16,14.62,16,.7,15.48-.39,24-6.1,37.82-6.1,37.82,5.37,12.91,5,25.05c-.49,17.56-.79,47.26-.79,47.26A28,28,0,0,1,262,331.35a47.19,47.19,0,0,1-11-.8s-7.7-25.44-10.82-47.07C239,275.16,232.59,249.51,231.43,230.89Z"/><path class="cls-12" d="M275.35,144.4c.39-7.51-.48-11,1-24.15,1-8.08,5.46-20.69,6-29.6s3.06-21.4-4.6-27S246.09,54,236.75,53.89s-17.26.83-25.88,5.42c-9.51,5.08-9.35,13.35-10.64,27.31-.15,1.56-1.37,17.91-1.6,24.24-.55,15.06-1.33,28-3,36.3s-4.54,39.7-4.56,41.69c0,0,6.9,6.52,13,8.05s11.84,2.29,19.92,3.45c1.58.23,3.84-11.5,3.84-11.5l3.44,12.65s13.8,2.3,24.53.77,23.38-8.05,23.38-8.05S275,151.91,275.35,144.4Z"/><path class="cls-2" d="M253.83,59.33s-24.08,70.42-26.46,71.17-9.61-30.32-9.7-51.1,3.07-25.31,3.07-25.31Z"/><path class="cls-3" d="M230.51,73.49s-3.45,16.48-3.45,26.83.32,27,.32,27"/><path class="cls-11" d="M221.59,107.81c1.28,14.08,6,23.89,5.09,24.71s-6.52-10.35-9.2-16.87a145.87,145.87,0,0,1-6.23-23.84c-.82-6.17,3.81-12.64,3.81-12.64s-3.35-4.78-3-8.91S214,58.72,215.18,57c2-2.88,7.18-4,7.18-4S220.32,93.74,221.59,107.81Z"/><path class="cls-11" d="M253.19,54.9s7.6.11,9,1.93-.9,11.66-1.43,16.32S253,81.23,253,81.23s4.77,7.89,1,15.28c-4.56,8.83-24.17,38.22-27.27,36-1.77-1.26,9.35-20.79,17.22-45.32C249.88,68.56,253.19,54.9,253.19,54.9Z"/><path class="cls-13" d="M248.5,49.39s4,2.2,5.06,4,.27,5.9.27,5.9-2.4,6.89-5.2,10-9.82,8.85-9.82,8.85l-7.26-12.37Z"/><path class="cls-13" d="M227.26,49.75s-4.32,1.33-5.06,3a35.92,35.92,0,0,0-1.42,6.36,63.37,63.37,0,0,0,1,7.66,92.38,92.38,0,0,0,3.57,10.14l6.76-9.9Z"/><path class="cls-14" d="M230.12,65.63s-9.15-7.38-10-3-1.46,12,1.65,12,7.08-4,7.08-4Z"/><path class="cls-14" d="M233,66.32s10.31-5.63,10.4-1.12-.7,12.07-3.78,11.55-6.24-5.21-6.24-5.21Z"/><path class="cls-15" d="M231.13,65.23c-1.92.12-3,.51-3.24,2.39s-.9,4.59.42,5.1,5.08,1,5.59-.36.37-4.48.3-5.36S233,65.12,231.13,65.23Z"/><path class="cls-16" d="M229.76,146.11a1.9,1.9,0,1,0,2-1.8A1.91,1.91,0,0,0,229.76,146.11Z"/><path class="cls-16" d="M230.24,165a1.9,1.9,0,1,0,2-1.8A1.91,1.91,0,0,0,230.24,165Z"/><path class="cls-16" d="M230.44,183.75a1.9,1.9,0,1,0,2-1.79A1.9,1.9,0,0,0,230.44,183.75Z"/><path class="cls-17" d="M226.1,134.91c-.57,10.92-1.16,15-1,24.05.18,7.91,2.34,31.7,2.34,31.7"/><path class="cls-4" d="M225.41,43.36l22.64-5.7,2.42,16.66s-2.14,1.81-5.69,4.6-12.69,7.76-12.69,7.76-3.79-4.43-5.25-6.12-3.14-6.45-3.14-6.45Z"/><path class="cls-4" d="M220.78,9.23C225.65,1,238.35,1,244.84,4.83c10,5.86,11,19.36,7.31,31.14-2,6.48-5.08,10.78-10.53,13.76-11.83,6.5-19.31,1.14-21.65-2.68-2.6-4.27-3.68-14.79-3.59-18.81C216.52,22.35,215.9,17.47,220.78,9.23Z"/><path class="cls-18" d="M224.33,30.69a1.87,1.87,0,1,1-1.73-2.06A1.91,1.91,0,0,1,224.33,30.69Z"/><path class="cls-18" d="M239.38,31.86a1.87,1.87,0,1,1-1.73-2.05A1.9,1.9,0,0,1,239.38,31.86Z"/><path class="cls-19" d="M244,26.47A9,9,0,0,0,238.72,25a7.66,7.66,0,0,0-2.48.28c-.6.2-1.69.46-1.71,1.25l.31-.53a3.37,3.37,0,0,0-.58.48.38.38,0,0,0,.26.64,4.24,4.24,0,0,1,.62,0l-.52-.3c.36.57,1.21.38,1.79.39.73,0,1.46-.13,2.19-.13a7.72,7.72,0,0,1,4.46,1,1,1,0,0,0,1-1.66Z"/><path class="cls-19" d="M219.67,26.36c.15-.14,0,0-.06,0l.13-.07.15-.08c-.19.13-.12.05,0,0a5.22,5.22,0,0,1,.78-.19c.06,0,.3,0,0,0l.24,0,.45,0c.34,0,.69,0,1,0s.68,0,1,.08h.07l.26.05.5.12a2.1,2.1,0,0,0,.24.06l.24,0,.47.09a2,2,0,0,0,1,.08h-.32a2.49,2.49,0,0,1,.37.09.38.38,0,0,0,.55-.42,2.7,2.7,0,0,0-.24-.55l.08.3c0-.86-1.11-1.49-1.86-1.69a10.58,10.58,0,0,0-2.44-.36,8.53,8.53,0,0,0-2.31.25,3.67,3.67,0,0,0-1.74.86,1,1,0,0,0,1.36,1.36Z"/><path class="cls-20" d="M230.91,41.54a5.42,5.42,0,0,1-.82-.17,8.08,8.08,0,0,1-2.05-.9,6.63,6.63,0,0,1-1.22-1,4.89,4.89,0,0,1-1-1.64c0-.14-.07-.25-.11-.42a4.36,4.36,0,0,1-.07-.62,3,3,0,0,1,.25-1.21A4.68,4.68,0,0,1,227.25,34a10.18,10.18,0,0,0,1.13-1l.09-.12,0,.05h0v0l0-.05,0-.09a2.69,2.69,0,0,0,.13-.32c.06-.17.15-.45.21-.69.14-.5.23-1,.33-1.49s.18-1,.25-1.39c.15-.87.28-1.59.37-2.1s.16-.8.16-.8a19,19,0,0,1,.39,2.95,17.21,17.21,0,0,1,0,3.1,5.19,5.19,0,0,1-.16.93,4,4,0,0,1-.16.49l0,.1,0,.05v0l0,.07-.14.24a6.32,6.32,0,0,1-1.33,1.45,3.79,3.79,0,0,0-.89,1,1,1,0,0,0-.11.46c0,.08,0,.14,0,.21s.06.26.08.39a3.42,3.42,0,0,0,.51,1.11,6.75,6.75,0,0,0,.79,1A19.14,19.14,0,0,0,230.29,41Z"/><path class="cls-19" d="M216.73,14.72c.36-.83-.58-5.08.27-7.08s5.27-4.26,10.17-6A30.66,30.66,0,0,1,244.93,1c6.74,1.63,12.77,6,12.71,13.21,0,6-.93,16-2.2,16.55s-6,2.28-6,2.28-2.88-7-2-9-2-8.62-3.25-9.07c-1.05,0-9.27,2.46-14.31,2.56a10.3,10.3,0,0,1-7.9-3.79,35.28,35.28,0,0,0-2.66,3.72,72.74,72.74,0,0,0-2.93,6.76s-1-1.1-1-3.81A12.2,12.2,0,0,1,216.73,14.72Z"/><path class="cls-21" d="M247.57,34.06s6.38-7,7.28-2.15c1.24,6.79-1.61,9.26-8,10.16"/><path class="cls-4" d="M252.19,26.6c4-1.39,6.12,3.3,4.57,8.76-1,3.43-5.68,5-7.66,4C249.25,35.89,248.5,27.88,252.19,26.6Z"/><path class="cls-22" d="M230.39,34.94c11.38.35,17.34-1.93,17.34-1.93s2.16,12.05-2.07,15.67a21.74,21.74,0,0,1-17.47,4.56c-6.52-1.35-8.82-5.92-10.41-9.49s-1.63-11.69-1.63-11.69S219,34.59,230.39,34.94Z"/><path class="cls-23" d="M217.73,34.84s3.37,2.63,11.56,3a52.31,52.31,0,0,0,17-2.58l.24,2.23S235.1,40,229.66,39.51a69.2,69.2,0,0,1-11.52-2.19Z"/><path class="cls-23" d="M218.7,41.59s3.13,1.94,10.81,2.26c8.08.32,16.82-2.54,16.82-2.54l-.15,2.1s-11.22,2.45-16.32,2a64.23,64.23,0,0,1-10.81-2.06Z"/><path class="cls-23" d="M244.94,46.82a52.19,52.19,0,0,1-14.42,1.85c-5.68-.23-8.86-1.35-10.14-1.92.15.57.32,1.14.5,1.7a63.16,63.16,0,0,0,10,1.83c3.45.27,9.64-.75,13.33-1.44A6,6,0,0,0,244.94,46.82Z"/><path class="cls-4" d="M229.45,145.78s-13.49-6.86-21.07-3-10.64,9.12-11.28,11.48c-1.29,4.78,1.71,4.35,1.71,4.35a1.77,1.77,0,0,0,.56,2.16,6.94,6.94,0,0,0,2.16,1.52s.23,1.79.74,2.15a2.26,2.26,0,0,0,1.4.51c1.61-.19,10.54-6.57,14.75-7.85,1.77-.54,3.67.94,5.92,1.42,3.09.66,6.71-1.84,6.71-1.84S232.36,148.86,229.45,145.78Z"/><path class="cls-5" d="M206,147.51a20,20,0,0,0-4.34,4.88,47.56,47.56,0,0,0-2.8,6.19"/><path class="cls-5" d="M210.74,149.49A8,8,0,0,0,206,153a93.27,93.27,0,0,0-4.38,8.38"/><path class="cls-5" d="M202,162.75s4.51-4.37,6.64-6.41c1.79-1.71,5.39-2.54,5.39-2.54"/><path class="cls-2" d="M273.37,64.79c-4.3.94-9.74,7.75-11.44,20s-5.6,36-6,38.34-6.13,5.29-11,8.24c-2.73,1.68-12.2,8.84-12.2,8.84l-6.29,2.41s2.12,5.72,3,8.57a44.24,44.24,0,0,1,1.29,7.74l5.71-1.47a156.46,156.46,0,0,0,15.78-2.35c10.31-2.48,25.95-6.3,28.9-12.87s4.77-34.58,5.74-44.37-.7-23.85-3.07-27.84S277.66,63.86,273.37,64.79Z"/><path class="cls-3" d="M232.54,140.26a38.1,38.1,0,0,1,3,8.58,24.31,24.31,0,0,1,.47,8.32"/><path class="cls-24" d="M242.13,152.45a1.44,1.44,0,1,1-1.46-1.41A1.44,1.44,0,0,1,242.13,152.45Z"/><path class="cls-25" d="M237.22,139.89c2.33,1.87,8.46,1.76,7.94,16s-1.24,38.35-1.9,44.88-2.08,12.3,1,13,5.71-2,5.71-2a8.37,8.37,0,0,0,7.33,2.55c5-.47,5.68-3.93,8.75-4s4.95-1.62,6.82-4.33,3.08-21.14,2.9-31.1-2.93-36-8-42a25.88,25.88,0,0,0-14.33-8.19c-1.73-.25-3.09,1.42-7.22,3.58a21.56,21.56,0,0,0-3.4,3.13s-4.2.84-6.08,2.78S234.88,138,237.22,139.89Z"/><path class="cls-26" d="M246.45,136.56c3,4.84,6.2,14.75,5.68,28.94S250.69,209,250.69,209"/><path class="cls-26" d="M250.34,129s7.55,3.89,10.37,17.35,3.1,29.27,2.93,36.18.18,26.44.18,26.44"/><path class="cls-26" d="M263.25,143.74s4.11,21.49,4,30.69c-.12,8.34,0,34.21,0,34.21"/><path class="cls-27" d="M16,328.86c-1,10.72-6.33,37-7.79,42.39C6.91,376,5.76,379,10.63,378.56s5.85-1.46,8.77-9.75,7.06-29.76,8.78-40.93c1.94-12.67,2.92-46.77,2.92-46.77H17.94S17,318.14,16,328.86Z"/><path class="cls-27" d="M65.57,267.46c-.29,10.12-1.06,34.92-1.83,43.37-1,10.72-6.33,37-7.79,42.39-1.29,4.72-2.44,7.8,2.44,7.31s5.84-1.46,8.77-9.75,7-29.76,8.77-40.93c1.52-9.87,2.44-32.76,2.78-42.39Z"/><path class="cls-27" d="M104.53,328.86c-1-10.72-2-47.75-2-47.75H89.42s1,34.1,2.93,46.77c1.72,11.17,5.85,32.65,8.77,40.93s3.9,9.26,8.77,9.75,3.72-2.59,2.44-7.31C110.86,365.89,105.5,339.58,104.53,328.86Z"/><path class="cls-27" d="M140.1,310.83c-.77-8.45-1.54-33.25-1.83-43.37H125.14c.33,9.63,1.26,32.52,2.78,42.39,1.72,11.17,5.84,32.65,8.77,40.93s3.9,9.26,8.77,9.75,3.72-2.59,2.43-7.31C146.43,347.86,141.07,321.55,140.1,310.83Z"/><path class="cls-28" d="M48.15,166.77s-29.72-1.63-37,0C5.87,167.93-2.52,170,.73,182.36s9.09,54.57,9.74,72.11.65,31.83,9.1,33.78,72.76,0,72.76,0A76.86,76.86,0,0,0,117,283.06c13.64-5.2,22.09-8.45,22.09-8.45s8.44-5.2-8.45-7.15-74.06.65-74.06.65Z"/><path class="cls-29" d="M130.66,267.46c-16.89-1.94-74.06.65-74.06.65L48.15,166.77s-29.72-1.63-37,0c-.7.15-1.46.33-2.24.54C8.11,169.43,8,172.24,9,176c3.25,12.35,9.1,54.58,9.75,72.12.23,6.35.64,12.5.88,17.35.43,9,.25,16.59.25,16.59s26.83-2.08,31.19-1.95c20.15.62,50.18.49,50.18.49s10.4,1.3,24-3.9c6.5-2.47,11.8-4.5,15.59-6C140,269.51,137.33,268.23,130.66,267.46Z"/><path class="cls-4" d="M96.4,185.74s1.75,10,2.5,15.25,1.25,18.25,1.25,18.25l4.5,1,1.26,9.42s-15,5.33-20,.08S83.15,184,83.15,184Z"/><path class="cls-30" d="M91.15,219.74a26.77,26.77,0,0,1,8.75-.25"/><polygon class="cls-31" points="148.03 313.66 155.63 342.49 172.95 339.4 166.6 309.21 148.03 313.66"/><path class="cls-32" d="M79.57,232.78s68.65-7.78,76.73,7.65,16.18,78,14.68,80.19-22.64,4.53-23.35,2.13c-1.27-4.38-13.28-49.68-16.65-54.1s-29.85,2.87-43,3.34c-13.63.49-33.34,3.52-38.2-4.29-4.55-7.3-4.13-28.61-4.13-28.61Z"/><path class="cls-33" d="M55.55,262.42s.43.31,1.25.81"/><path class="cls-34" d="M58.56,264.25C64,267.18,76,272.3,89.65,269c18.58-4.45,44.4-11.74,47.64-4.38,2.81,6.36,13,42.57,15.78,52.33"/><path class="cls-33" d="M153.34,318c.26.93.41,1.44.41,1.44"/><polygon class="cls-4" points="115.82 325.09 119.42 354.72 137 354.16 134.83 323.36 115.82 325.09"/><path class="cls-35" d="M58.15,237s66.67,4.69,74.5,18c8.86,15,6.75,78.3,5,80.3s-23,.68-23.41-1.8c-.67-4.52-7.52-48.38-10.25-53.24s-24-2.93-40-2.6c-7,.15-19.26.07-25.66-2-6-1.95-11.73-6.08-13.56-10.18-3.5-7.88-.19-28.91-.19-28.91Z"/><path class="cls-36" d="M45.24,242.38s-2,10.86-16.7,11.94"/><path class="cls-36" d="M31.2,261.08s.39.37,1.13,1"/><path class="cls-37" d="M33.92,263.3c4.94,3.68,16.15,10.49,30.15,9.22,19-1.74,42.7-2.62,44.91,5.13,1.91,6.66,7.67,41.24,9.26,50.85"/><path class="cls-36" d="M118.41,329.51c.15.95.24,1.48.24,1.48"/><path class="cls-38" d="M173.16,338s12.09,7.93,23.91,15c4.59,2.74,8.8,7.75,3.8,11.77-2.48,2-15.9,4.78-25,.68-10.32-4.66-19.18-4.3-22.16-7.8s1.06-16.54,1.06-16.54Z"/><path class="cls-39" d="M176.06,349.92s-8.59-3.79-11.76-8.15"/><path class="cls-39" d="M201.25,359.59s-2.43,3-8.66,3.71-10,.67-15.46-1-8.5-4.13-13.06-5.16-8.31-1.07-10.39-2.84"/><path class="cls-38" d="M137.6,352.94s10,10.47,19.89,20c3.86,3.71,6.82,9.55,1,12.33-2.87,1.38-16.57,1-24.46-5-9-6.88-17.71-8.54-19.82-12.62S119,351.79,119,351.79Z"/><path class="cls-39" d="M137.74,365.17s-7.51-5.64-9.61-10.6"/><path class="cls-39" d="M160.08,380.29s-3.05,2.38-9.27,1.66-9.87-1.62-14.83-4.51-7.34-5.95-11.55-8-7.85-2.92-9.48-5.12"/><path class="cls-40" d="M137.84,330.71a25.19,25.19,0,0,1-11.42,1.79,39.81,39.81,0,0,1-12.77-2.85s-2,3.83-.19,6.41,6.05,4,13,4.72,11.68-1.21,12.83-3.85S137.84,330.71,137.84,330.71Z"/><path class="cls-41" d="M171.12,316.48a25.15,25.15,0,0,1-10.8,4.15A27.64,27.64,0,0,1,147,319.25s-.9,5.45,1.4,7.59,6.74,2.61,13.68,1.89,11.16-3.65,11.73-6.47S171.12,316.48,171.12,316.48Z"/><path class="cls-42" d="M38.47,246.15c-4.75,2.49-12.68,5.71-15.2,7.38s-3.62-4.88-3.29-8.21a26.82,26.82,0,0,1,1.34-6s-.49-9.09-.24-13c.27-4.23.5-8.33.51-11.82.05-21.36-2.94-53.52,3.56-64s22.83-13.51,40-13S91,145.32,93,153s3.67,18.33,3.67,22.33S99,185,98,186.32s-7,2-7,2-2.26,12.81-2.33,16.33c-.33,16.34-.34,27.49-.34,27.49s-14.88,3-23.92,5S47.3,241.51,38.47,246.15Z"/><path class="cls-43" d="M87.65,150.65s2.33,8.34,2.67,14S92,184,91,188.32"/><path class="cls-43" d="M22,241s17-8,32-10.67"/><path class="cls-4" d="M72.43,129.53l.63,8.7s.53,9-7.34,10-13.8-10.63-13.8-10.63l0-14.33Z"/><path class="cls-44" d="M78.33,94.21A15.65,15.65,0,0,1,85.25,108c-.17,9.71-4.28,10.3-7.59,7.94S64.23,101.5,64.23,101.5l4.25-11Z"/><path class="cls-4" d="M79.89,100.15c4,11,3.5,33.09-8.17,34.42s-18.33,0-24.07-18.17,4.56-25.75,9.23-26.66C60.52,89,75.9,89.12,79.89,100.15Z"/><path class="cls-45" d="M60.31,115.14a1.78,1.78,0,1,0,1.11-2.26A1.78,1.78,0,0,0,60.31,115.14Z"/><path class="cls-45" d="M75.65,114.49A1.78,1.78,0,1,0,79,113.34a1.78,1.78,0,1,0-3.36,1.15Z"/><path class="cls-20" d="M69.8,110.83a20.63,20.63,0,0,1,1.06,2.76c.16.46.27.93.41,1.4s.23.94.35,1.4l-.38-.57a9.1,9.1,0,0,1,1.19.79,9.63,9.63,0,0,1,1.09,1c.17.17.33.37.5.57a5.65,5.65,0,0,1,.45.7,2.32,2.32,0,0,1,.28,1,1.8,1.8,0,0,1-.32,1.16l-.19.23,0,0-.06.06h0l-.07,0-.27.19-.56.37c-.2.12-.36.25-.58.36l-.66.3a8.78,8.78,0,0,1-1.31.5,10.05,10.05,0,0,1-1.34.32c.35-.3.69-.6,1-.88s.67-.57,1-.84l.48-.39c.16-.12.31-.31.47-.46l.47-.47.25-.22.06-.06,0,0h0l-.06,0h0s0,0,0,0,0,0,0,0,0,0,0-.06,0-.07,0-.12a1,1,0,0,0-.09-.17,2.26,2.26,0,0,0-.28-.4c-.13-.14-.25-.28-.4-.42a12,12,0,0,0-.9-.82l-1-.77L70,117l0-.3c0-.48-.11-1-.14-1.44s-.08-1-.08-1.46A20.87,20.87,0,0,1,69.8,110.83Z"/><path class="cls-44" d="M80.43,111.05l.21,0a.66.66,0,0,0,.6-.39.65.65,0,0,0-.14-.71,2.24,2.24,0,0,0-.59-.39c-.24-.1-.47-.2-.71-.28a7.88,7.88,0,0,0-1.34-.31,6.63,6.63,0,0,0-2.87.18.79.79,0,1,0,.42,1.52q.3-.09.6-.15l.11,0,.32,0a7,7,0,0,1,1.21,0,2.62,2.62,0,0,1,.5.07,4.78,4.78,0,0,1,.57.12c.39.1.76.25,1.15.34l-.15-1.19-.19.12a.62.62,0,0,0-.28.68.61.61,0,0,0,.58.44Z"/><path class="cls-44" d="M65.57,109.7c-.16-.45-.69-.58-1.1-.71a10.06,10.06,0,0,0-1.81-.3l-.7-.06a6,6,0,0,0-1.27.16,10.14,10.14,0,0,0-1.21.29,5.16,5.16,0,0,0-.66.23,2.22,2.22,0,0,0-.67.46.58.58,0,0,0,0,.8s.12.16.06,0l-.05-.34,0,.14a.27.27,0,0,0,.13.31l.1,0a.45.45,0,0,0,.54-.07.72.72,0,0,0,.21-.53l-.57.57a2.09,2.09,0,0,0,.66,0c.19,0,.37-.1.56-.16.36-.11.72-.23,1.08-.32a5.12,5.12,0,0,1,1.59-.18c.51,0,1,.09,1.5.14l.67,0c.06,0,.07,0,0,0l.11,0,.09,0h0a.38.38,0,0,1-.23-.18c.31.46,1.17.18.95-.41Z"/><path class="cls-13" d="M73.18,124.64a17.39,17.39,0,0,1-3.77.33c-2.68-.3-4.29-3.32-5.47-2.5s-2.57,5.45,1.72,6.78C71.36,131,73.18,124.64,73.18,124.64Z"/><path class="cls-5" d="M72.78,134.45s-5.12,1.43-8.77.68a24.55,24.55,0,0,1-5.69-1.79"/><path class="cls-44" d="M83.63,93.34c-3.47-3.38-6.28-3.71-6.28-3.71a17.57,17.57,0,0,0-10.7-7.58c-7.38-1.74-11.38,4.54-11.38,4.54s-6.5-1.71-10.49,3.68S42.85,104.06,49,105.34s9-5.63,9-5.63,7.53,3,11.08,2.16a12.71,12.71,0,0,0,6.1-4s2.82,8,8.3,6.61C87.56,103.49,87.1,96.72,83.63,93.34Z"/><path class="cls-44" d="M45.52,94.85s-6.85,4.25-6.64,9.91a11.81,11.81,0,0,0,3.85,8.54s3.82.85,5.25,3.47,3.43,2.55,4.71,1.17c.38-.41.29-4.44.29-4.44a16.58,16.58,0,0,0,1-6.62,81,81,0,0,0-1-9Z"/><path class="cls-4" d="M50,115.27c-.92-3.65-7.33-5.41-8.07-1s2.87,9.58,7.12,10S50.93,118.91,50,115.27Z"/><path class="cls-4" d="M132.28,227c-.67-3.05-3.8-6.73-6.45-7.54-3.57-1.09-9.61-3-13.2-2-1.25.34-7.25,1.07-9.43,2.4s-.32,7.73,1.6,9.69l2.11,0c3,0,8.34.78,9.68.92,2.33.24,4.78,2.39,6,.22s-3-3.64-1.52-3.82a4.16,4.16,0,0,1,3.58,1.5A45.18,45.18,0,0,0,128,232c2.06,1.81,3.42-1.59,3.42-1.59S133,230,132.28,227Z"/><path class="cls-30" d="M130.86,229.54a18,18,0,0,0-4.17-5.41c-2.49-2-6.88-2-6.88-2"/><path class="cls-30" d="M120.75,227.2c-.84-1.2-5-2.21-6.35-2"/><path class="cls-29" d="M232,388.57c0,4.83-15.41,6.59-34.41,6.59s-34.42-1.76-34.42-6.59,15.4-8.75,34.42-8.75S232,383.74,232,388.57Z"/><path class="cls-27" d="M192.67,234.28V383.06h0c.1,1.5,2.22,2.7,4.85,2.7s4.74-1.2,4.84-2.7h0V234.28Z"/><path class="cls-46" d="M197.54,233.16H86s.06,3.36.12,6.24c0,2.13.64,3.48,2,4.35,1.06.65,4.9,1.7,13.2,2.24,26.16,1.71,78.35.73,96.22.88,17.86-.15,70,.83,96.21-.88,8.3-.54,12.14-1.59,13.2-2.24,1.39-.87,2-2.22,2-4.35.06-2.88.11-6.24.11-6.24Z"/><path class="cls-47" d="M197.54,230.67c-23.62.08-111.57.69-111.57,2.49s10.14,3.47,111.57,3.47S309.1,235,309.1,233.16,221.15,230.75,197.54,230.67Z"/><path class="cls-48" d="M227.63,232.13c0,1.28-7.4,2.32-16.54,2.32s-16.54-1-16.54-2.32,7.41-2.31,16.54-2.31S227.63,230.86,227.63,232.13Z"/><ellipse class="cls-49" cx="211.09" cy="231.86" rx="11.59" ry="1.45"/><path class="cls-50" d="M211.09,214.48c-8.27,0-12.66,1.28-12.66,1.28,0,3,2.87,11.08,4.73,12.57s4.32,2.37,7.93,2.37,6.08-.88,7.94-2.37,4.72-9.59,4.72-12.57C223.75,215.76,219.36,214.48,211.09,214.48Z"/><path class="cls-51" d="M198.72,216.07c0,.46,5.54.84,12.37.84s12.38-.38,12.38-.84-5.54-1.26-12.38-1.26S198.72,215.61,198.72,216.07Z"/><path class="cls-50" d="M220.11,228.05a6.09,6.09,0,0,1-1.38-.14l.27-1.18a7.58,7.58,0,0,0,5.5-1.27,6.24,6.24,0,0,0,3-4.34,2.62,2.62,0,0,0-.82-2.2c-1.69-1.56-3.82.2-3.84.21l-.73-.95c1-.84,3.4-2,5.33-.17a3.85,3.85,0,0,1,1.22,3.21,7.45,7.45,0,0,1-3.59,5.27A9.13,9.13,0,0,1,220.11,228.05Z"/><path class="cls-51" d="M211.09,229.45c-6.71,0-10.24-6-11.19-7.36,1,2.77,2.25,5.44,3.24,6.24s1.8,1.48,2.17,1.81c-1.15.26-1.84.59-1.84,1,0,.82,3.41,1.48,7.62,1.48s7.63-.66,7.63-1.48c0-.37-.7-.7-1.85-1,.38-.33,1.06-.91,2.17-1.81s2.27-3.47,3.25-6.24C221.33,223.48,217.8,229.45,211.09,229.45Z"/><path class="cls-48" d="M133.3,232.8c0,1.28-7.41,2.31-16.54,2.31s-16.54-1-16.54-2.31,7.4-2.31,16.54-2.31S133.3,231.52,133.3,232.8Z"/><path class="cls-49" d="M128.35,232.52c0,.81-5.19,1.46-11.59,1.46s-11.59-.65-11.59-1.46,5.19-1.45,11.59-1.45S128.35,231.72,128.35,232.52Z"/><path class="cls-27" d="M298.11,300.46c.29,10.12,1.06,34.92,1.83,43.37,1,10.72,6.33,37,7.79,42.39,1.29,4.72,2.44,7.8-2.44,7.31s-5.84-1.46-8.77-9.75-7-29.76-8.77-40.93c-1.51-9.87-2.44-32.76-2.78-42.39Z"/><path class="cls-52" d="M274.34,361.7a23.94,23.94,0,0,1-3.6,15.39c-1.63,3-4.33,5-6.94,9.54-2,3.53.23,7.42,3.63,8.63,6.29,2.25,16.54-4.39,19.72-10.45a25.85,25.85,0,0,1,10.49-10.89c3.37-1.9,5.8-7.34,2.23-11.51-1.42-1.66-3.8-3.83-6.41-6.26-3.08-2.88-5.33-5.43-5.33-5.43Z"/><path class="cls-53" d="M279.16,377.4c5-4.64,7.61-10.57,11.23-14.62,2-2.23,3.4-4.16,3.21-6.5l-.14-.13c-3.08-2.88-5.33-5.43-5.33-5.43l-13.79,11a23.94,23.94,0,0,1-3.6,15.39,14.65,14.65,0,0,1-1,1.64C270.94,380.75,275,381.28,279.16,377.4Z"/><path class="cls-54" d="M243.23,279c-6.37.07-10.1,2-11.11,13.1s22,49.85,25.33,57.27S264.3,365,264.3,365s8.71.24,15.36-3.56,13.21-11.29,13.21-11.29-17.54-35.21-21.73-42.3S258,287.05,258,287.05,249.59,279,243.23,279Z"/><path class="cls-55" d="M242.65,374.44a23.8,23.8,0,0,1-6.72,14.31c-2.22,2.63-5.25,3.95-8.76,7.89-2.7,3-1.31,7.31,1.75,9.2,5.7,3.5,17.11-.86,21.47-6.13a25.67,25.67,0,0,1,12.52-8.48c3.69-1.16,7.2-6,4.57-10.8-1.05-1.91-2.92-4.53-5-7.45-2.42-3.46-4.09-6.42-4.09-6.42Z"/><path class="cls-4" d="M244.11,390.8c5.84-3.51,9.64-8.76,14-12,2.41-1.76,4.19-3.36,4.49-5.69l-.11-.15c-2.42-3.46-4.09-6.42-4.09-6.42l-15.77,7.88a23.8,23.8,0,0,1-6.72,14.31,13.54,13.54,0,0,1-1.35,1.38C235.37,392.37,239.23,393.73,244.11,390.8Z"/><path class="cls-56" d="M229.36,287.11c-6.24-1.24-10.29-.09-13.58,10.52S227,351,228.68,358.9s3.46,16.71,3.46,16.71,8.47,2.05,15.77-.29,15.26-8.3,15.26-8.3-9.85-38.09-12.48-45.89-8.54-23.1-8.54-23.1S235.6,288.36,229.36,287.11Z"/><path class="cls-27" d="M347.69,358.86c1,10.72,6.33,37,7.79,42.39,1.29,4.72,2.44,7.79-2.44,7.31s-5.84-1.46-8.76-9.75-7.06-29.76-8.78-40.93c-1.94-12.67-2.92-46.77-2.92-46.77h13.16S346.71,348.14,347.69,358.86Z"/><path class="cls-27" d="M259.15,366.36c1-10.72,2-47.75,2-47.75h13.16s-1,34.1-2.93,46.77c-1.72,11.17-5.84,32.65-8.77,40.93s-3.9,9.26-8.77,9.75-3.72-2.59-2.44-7.31C252.82,403.39,258.18,377.08,259.15,366.36Z"/><path class="cls-27" d="M223.58,348.33c.77-8.45,1.54-33.25,1.83-43.37h13.13c-.33,9.63-1.26,32.52-2.78,42.39C234,358.52,229.92,380,227,388.28s-3.9,9.26-8.77,9.75-3.72-2.59-2.43-7.31C217.25,385.36,222.61,359.05,223.58,348.33Z"/><path class="cls-28" d="M343.48,320c-4.62,3.23-72.13,1.26-72.13,1.26a76.86,76.86,0,0,1-24.69-5.19c-13.64-5.2-22.09-8.45-22.09-8.45s-8.44-5.2,8.45-7.15,74.06.65,74.06.65S324,303,334.48,308,348.11,316.75,343.48,320Z"/><path class="cls-56" d="M266.45,270s-48,8.36-49.35,25.89c-1,13.17,4.38,8.11,14.88,7.11s29.07-1.86,41,.71c9,1.94,34.82,3.75,36.47-7.49s-1.65-22.47-6.24-26.22S266.45,270,266.45,270Z"/><path class="cls-55" d="M331.44,281.86s-1.8-27-1.75-31.11c.1-8.57,2.53-29.8,2.19-46.87-.46-23.22-9.11-28.32-18.84-32s-24.53-.87-31.11.88S264.32,184.65,267,205.32s1.67,26.67,1.67,37.33-8.18,26.94-6.43,30.45c.73,1.45,13.14,16.64,30.23,17.52S331.44,281.86,331.44,281.86Z"/><path class="cls-4" d="M229.86,239.24s-5-8.84-13.49-10.52-15.88,4-15.91,4.6c0,.14-1.13.66-1.32,1.91s.44,1.63.44,1.63-1.86.78-1.78,2.27,1,1.81,1,1.81-1.5,2.52.2,2.77c1.47.21,2.2-.4,3.72-.54a20.33,20.33,0,0,1,5.53.29c2.6.54,3.72,3.81,6.79,4.27,5,.75,9.78.85,11.93-.7S229.86,239.24,229.86,239.24Z"/><path class="cls-5" d="M214,232.11s-7.57-1.49-12.9,1.41"/><path class="cls-5" d="M213.52,236.15s-8.51-1.7-13.21.46"/><path class="cls-5" d="M212.51,240s-8.4-1.73-13.1.43"/><path class="cls-4" d="M229.32,237l-3.53,10.09A100,100,0,0,0,254,249c14.34-1.34,23.27-2.77,26.34-9.34s6.21-34.48,5.33-45S281,179,275.32,178.32s-10,12-11,21.33S259.65,227,259.65,227s-12,3.33-16.67,4.66S229.32,237,229.32,237Z"/><path class="cls-4" d="M285.28,155.85l-1.63,16.8a25.09,25.09,0,0,0,12,1.67c7-.67,10.33-4.67,10.33-4.67l-3.46-14.84Z"/><path class="cls-4" d="M271.23,141.79c.71-1.72,1-8.12,1.5-10.54,3.11-15.34,19.46-17,28.84-12.58s12,24.34,8.37,30.42-13.13,10.45-17.36,12.16-10.48,5-17.1,2c-3.53-1.59-4-10.77-4.53-11.28-1.13-1.11-3.39-2.45-3.06-4.35A50.35,50.35,0,0,0,271.23,141.79Z"/><path class="cls-57" d="M276.62,140.61a1.67,1.67,0,0,0-2.34-.82,2.07,2.07,0,0,0-.85,2.58,1.67,1.67,0,0,0,2.34.82A2.08,2.08,0,0,0,276.62,140.61Z"/><path class="cls-58" d="M278.4,138.39a.51.51,0,0,0,.65-.48.7.7,0,0,0-.24-.48l.15.37c0-.49-.53-.8-.91-1a7.94,7.94,0,0,0-1.44-.51,6.8,6.8,0,0,0-3.47-.07.83.83,0,0,0,.44,1.61l.35-.1.2,0c.09,0,.13,0,0,0a5.8,5.8,0,0,1,1.52,0c-.11,0-.05,0,0,0l.2,0,.36.08c.42.09.85.19,1.26.31s.84.33,1.18.1l-.4.05c.09,0,.05,0,0,0h0a.43.43,0,0,1-.21-.38l.07-.24a.52.52,0,0,1,.24-.19.47.47,0,0,0,0,.9Z"/><path class="cls-58" d="M320.65,167.65c-2.33-4.66-2.31-12.31-1.62-22.44a31.72,31.72,0,0,0-2.18-14.38c-1.26-9.56-8.61-13.58-12.91-15.58-4.48-2.07-13.82-4.71-25.2,2.32-4.8,3-7.19,8.49-5.88,12.53s5.69,5.09,9.12,9.55.6,7.78,4.67,11.67c.64.61,1.29,1.31,2,2a14,14,0,0,1-2.29,6c-2.06,2.7-1.58,7.17-.55,10.89s3.08,8.11,2.4,11.15S283.65,191,286.65,197s7.67,10,13.67,7.66,10-5.33,15.33-6.33,12-3.86,13-10.33S323,172.32,320.65,167.65Z"/><path class="cls-4" d="M284,146.28s1.69-7,6.36-3-.66,10.68-4.62,10.47S284,146.28,284,146.28Z"/><path class="cls-13" d="M271.65,154.65a17.63,17.63,0,0,0,4.33-1c2.07-.87,3.47-2.22,4-1.33,1,1.67,1,6.33-4.66,6.33C271.64,158.65,271.65,154.65,271.65,154.65Z"/><path class="cls-28" d="M344.48,320c8.45-1.95,8.08-15,8.73-32.52s6.49-59.77,9.74-72.11-5.14-14.43-10.39-15.59c-4.78-1.07-31.08.72-35.58,1.22s-12.85,2.49-15.5,5c-3.45,3.28-3,44-3,44l-5,62s0,9,17.5,8.5S344.48,320,344.48,320Z"/><path class="cls-28" d="M284.48,313.59a.11.11,0,1,0,0-.21.11.11,0,0,0,0,.21Z"/><path class="cls-29" d="M293.67,309.72c2.33.16,4.66.37,7,.59l4.82-59.82s-.45-40.72,3-44c2.65-2.51,11-4.5,15.5-5,3.46-.39,19.78-1.53,29.33-1.55l-.75-.17c-4.78-1.07-31.08.72-35.58,1.22s-12.85,2.49-15.5,5c-3.45,3.28-3,44-3,44Z"/><path class="cls-50" d="M111.05,213.14c8.27,0,12.66,1.28,12.66,1.28,0,3-2.87,11.08-4.72,12.58s-4.32,2.37-7.94,2.37-6.07-.88-7.93-2.37-4.73-9.59-4.73-12.58C98.39,214.42,102.78,213.14,111.05,213.14Z"/><path class="cls-51" d="M123.43,214.74c0,.46-5.54.83-12.38.83s-12.37-.37-12.37-.83,5.54-1.27,12.37-1.27S123.43,214.28,123.43,214.74Z"/><path class="cls-50" d="M102,226.72a6.29,6.29,0,0,0,1.38-.14l-.28-1.18a7.64,7.64,0,0,1-5.5-1.27,6.29,6.29,0,0,1-3-4.34,2.62,2.62,0,0,1,.83-2.2c1.69-1.57,3.82.19,3.84.21l.72-1c-1-.84-3.4-2-5.33-.17a3.87,3.87,0,0,0-1.21,3.21A7.47,7.47,0,0,0,97,225.16,9.16,9.16,0,0,0,102,226.72Z"/><path class="cls-51" d="M111.05,228.12c6.71,0,10.24-6,11.2-7.36-1,2.77-2.26,5.44-3.24,6.24s-1.8,1.48-2.18,1.8c1.15.26,1.85.6,1.85,1,0,.81-3.42,1.48-7.63,1.48s-7.62-.67-7.62-1.48c0-.37.69-.71,1.84-1-.37-.32-1.06-.91-2.17-1.8s-2.27-3.47-3.24-6.24C100.81,222.14,104.34,228.12,111.05,228.12Z"/><path class="cls-4" d="M43.81,207.14l.07-26.58-22.1,1.63S21.3,215,28.48,221c0,0,6.27-.48,10.74-3.95s4.59-9.88,4.59-9.88"/><path class="cls-4" d="M28.87,221.38c8.3,6.4,48.83,8.85,48.83,8.85l1.65-11.92s-24-13.81-29.68-16.07a29,29,0,0,0-10.53-2.11s-6.36,1.62-8.69,5.2S23.75,217.43,28.87,221.38Z"/><path class="cls-4" d="M101.65,228.61c.19-1.84-1.4-1.33-4.24-1.22l.65-.13s4.48-.27,4.59-3.15c.14-3.55-3-1.58-6.5-1.21-.22,0-.45,0-.7,0,.72-.1,1.41-.22,2-.36,3.39-.73,4.67-2.21,4.27-3.27-1.19-3.15-2.72-1.46-6.18-1.09a16.87,16.87,0,0,1-5.14-.59,2.81,2.81,0,0,1,2.15-.52c3.06.5,5.47-1.74,4.48-3s-6.16-3.32-11-1.5-9.8,1.19-12.21,5.65c-2.07,3.85-2.5,7.79-.55,11.14,1.41,2.44,7.68,4.34,11.72,4.4a34.56,34.56,0,0,0,7.29.84c3.57-.13,5.23-.37,5.94-1.44s.17-1.45-.79-1.84h.06C99.36,231.13,101.46,230.45,101.65,228.61Z"/><path class="cls-5" d="M89.31,222.32a36.37,36.37,0,0,0,6.84.58"/><path class="cls-5" d="M87.86,227s5.64,1.44,10.2.27"/><path class="cls-5" d="M87,230.84a18.76,18.76,0,0,0,10.51.5"/><path class="cls-5" d="M87.41,217a24.21,24.21,0,0,0,6.81,1.51"/><path class="cls-42" d="M46.65,156.86s2.3,31,.1,34.59-26.36,5.2-29,2.63.56-5.16-.34-15.52c-1.06-12.18,3-26,9.21-30.57C38.73,139.08,47,148,46.65,156.86Z"/><path class="cls-43" d="M46.13,154.74s2.77,3.25,1.57,10-3.18,13.39-2.86,16.92,2.27,8,1.27,9.81a4.05,4.05,0,0,1-3.33,1.91"/><path class="cls-43" d="M41.67,184.24s-11.36-3.36-18.5-3.77"/></g></g></svg>