<svg width="192" height="193" viewBox="0 0 192 193" fill="none" xmlns="http://www.w3.org/2000/svg">
<path fill-rule="evenodd" clip-rule="evenodd" d="M150.496 81.644L150.469 111.908C150.467 113.985 152.17 115.689 154.248 115.687L185.609 115.658L185.644 77.829L154.283 77.8577C152.205 77.8596 150.498 79.5664 150.496 81.644Z" fill="white" stroke="#0E141E" stroke-miterlimit="10"/>
<path d="M186.639 116.494L154.362 116.498C151.877 116.498 149.845 114.466 149.845 111.981L149.849 81.5196C149.849 79.1127 151.96 77.0015 154.367 77.0012L186.643 76.9974L186.639 116.494ZM152.197 79.3295C151.605 79.9214 151.289 80.7106 151.289 81.4997L151.285 111.961C151.285 113.657 152.686 115.058 154.382 115.058L185.238 115.054L185.242 78.3983L154.387 78.402C153.558 78.4021 152.789 78.7375 152.216 79.3097L152.197 79.3295Z" fill="#0E141E" stroke="#0E141E" stroke-miterlimit="10"/>
<path fill-rule="evenodd" clip-rule="evenodd" d="M189.973 80.6978L190.351 114.027C190.374 116.13 189.476 119.155 187.002 117.817L184.487 116.44L184.053 78.1512L186.558 76.8505C189.279 75.4135 189.97 78.6149 189.993 80.7178L189.973 80.6978Z" fill="white" stroke="#0E141E" stroke-miterlimit="10"/>
<path d="M189.583 117.763C189.105 118.24 188.072 118.918 186.489 118.092L183.602 116.557L183.751 77.4335L186.65 75.8766C187.941 75.178 188.852 75.4124 189.386 75.7076C190.928 76.6134 191.077 79.229 191.073 80.2992L190.946 113.596C190.941 114.943 190.577 116.768 189.602 117.743L189.583 117.763ZM185.032 115.679L187.168 116.821C187.94 117.234 188.337 116.995 188.576 116.756C189.113 116.219 189.494 114.929 189.499 113.621L189.626 80.3245C189.632 78.6597 189.241 77.3135 188.648 76.959C188.351 76.7818 187.895 76.843 187.319 77.1425L185.174 78.3001L185.032 115.719L185.032 115.679Z" fill="#0E141E" stroke="#0E141E" stroke-miterlimit="10"/>
<path fill-rule="evenodd" clip-rule="evenodd" d="M110.919 151.496L80.656 151.468C78.5783 151.467 76.8746 153.17 76.8765 155.248L76.9051 186.609L114.734 186.644L114.706 155.282C114.704 153.205 112.997 151.498 110.919 151.496Z" fill="white" stroke="#0E141E" stroke-miterlimit="10"/>
<path d="M76.0694 187.638L76.0656 155.362C76.0653 152.876 78.0971 150.845 80.5829 150.845L111.044 150.849C113.451 150.849 115.562 152.96 115.562 155.367L115.566 187.643L76.0694 187.638ZM113.234 153.197C112.642 152.605 111.853 152.289 111.064 152.289L80.6028 152.285C78.9061 152.285 77.5055 153.685 77.5058 155.382L77.5094 186.238L114.165 186.242L114.162 155.387C114.161 154.558 113.826 153.788 113.254 153.216L113.234 153.197Z" fill="#0E141E" stroke="#0E141E" stroke-miterlimit="10"/>
<path fill-rule="evenodd" clip-rule="evenodd" d="M111.866 190.973L78.5364 191.35C76.4335 191.374 73.4087 190.476 74.7459 188.001L76.1233 185.486L114.412 185.053L115.713 187.557C117.15 190.279 113.948 190.969 111.846 190.993L111.866 190.973Z" fill="white" stroke="#0E141E" stroke-miterlimit="10"/>
<path d="M74.8006 190.582C74.3232 190.105 73.6454 189.072 74.4718 187.489L76.0066 184.601L115.13 184.75L116.687 187.65C117.385 188.941 117.151 189.852 116.856 190.386C115.95 191.928 113.334 192.077 112.264 192.073L78.9678 191.946C77.6201 191.941 75.7954 191.577 74.8205 190.602L74.8006 190.582ZM76.8841 186.032L75.7428 188.168C75.3295 188.939 75.5688 189.337 75.8076 189.575C76.3447 190.112 77.6344 190.494 78.9425 190.499L112.239 190.626C113.904 190.632 115.25 190.241 115.604 189.648C115.782 189.351 115.72 188.895 115.421 188.319L114.263 186.174L76.8445 186.032L76.8841 186.032Z" fill="#0E141E" stroke="#0E141E" stroke-miterlimit="10"/>
<path fill-rule="evenodd" clip-rule="evenodd" d="M110.919 42.0672L80.656 42.0948C78.5783 42.0967 76.8746 40.393 76.8765 38.3154L76.9051 6.95427L114.734 6.91972L114.706 38.2808C114.704 40.3585 112.997 42.0653 110.919 42.0672Z" fill="white" stroke="#0E141E" stroke-miterlimit="10"/>
<path d="M76.0694 5.92497L76.0656 38.201C76.0653 40.6868 78.0971 42.7186 80.5829 42.7183L111.044 42.7147C113.451 42.7144 115.562 40.6032 115.562 38.1963L115.566 5.92028L76.0694 5.92497ZM113.234 40.3667C112.642 40.9586 111.853 41.2744 111.064 41.2745L80.6028 41.2781C78.9061 41.2783 77.5055 39.8777 77.5058 38.1811L77.5094 7.32554L114.165 7.32117L114.162 38.1767C114.161 39.0053 113.826 39.7748 113.254 40.347L113.234 40.3667Z" fill="#0E141E" stroke="#0E141E" stroke-miterlimit="10"/>
<path fill-rule="evenodd" clip-rule="evenodd" d="M111.866 2.59017L78.5364 2.21294C76.4335 2.18914 73.4087 3.0872 74.7459 5.56203L76.1233 8.07699L114.412 8.51036L115.713 6.00588C117.15 3.28474 113.948 2.59391 111.846 2.57011L111.866 2.59017Z" fill="white" stroke="#0E141E" stroke-miterlimit="10"/>
<path d="M74.8006 2.98104C74.3232 3.45851 73.6454 4.49168 74.4718 6.07405L76.0066 8.96178L115.13 8.81278L116.687 5.91328C117.385 4.62238 117.151 3.7116 116.856 3.17761C115.95 1.63518 113.334 1.48658 112.264 1.49066L78.9678 1.61747C77.6201 1.62261 75.7954 1.98629 74.8205 2.96114L74.8006 2.98104ZM76.8841 7.53147L75.7428 5.39536C75.3295 4.62399 75.5688 4.2267 75.8076 3.98797C76.3447 3.45081 77.6344 3.06934 78.9425 3.06436L112.239 2.93754C113.904 2.9312 115.25 3.32246 115.604 3.91568C115.782 4.21229 115.72 4.66836 115.421 5.24425L114.263 7.38911L76.8445 7.53162L76.8841 7.53147Z" fill="#0E141E" stroke="#0E141E" stroke-miterlimit="10"/>
<path fill-rule="evenodd" clip-rule="evenodd" d="M41.075 81.6362V111.927C41.075 114.007 39.3682 115.714 37.2887 115.714L5.89893 115.714V77.8498L37.2887 77.8498C39.3682 77.8498 41.075 79.5566 41.075 81.6362Z" fill="white" stroke="#0E141E" stroke-miterlimit="10"/>
<path d="M4.88662 116.532L37.1795 116.519C39.6666 116.518 41.7005 114.485 41.7015 111.997L41.7137 81.5206C41.7147 79.1124 39.6035 77.0012 37.1953 77.0022L4.90251 77.0152L4.88662 116.532ZM39.3657 79.3305C39.9576 79.9224 40.2731 80.7118 40.2728 81.5014L40.2606 111.978C40.2599 113.676 38.8578 115.078 37.1603 115.079L6.28866 115.091L6.30341 78.4161L37.175 78.4036C38.0041 78.4033 38.7738 78.7386 39.346 79.3108L39.3657 79.3305Z" fill="#0E141E" stroke="#0E141E" stroke-miterlimit="10"/>
<path fill-rule="evenodd" clip-rule="evenodd" d="M1.83042 80.4575L1.2263 114.014C1.18818 116.131 2.07193 119.17 4.57242 117.807L7.11358 116.404L7.8076 77.854L5.29502 76.5614C2.56523 75.133 1.8482 78.3606 1.81009 80.4778L1.83042 80.4575Z" fill="white" stroke="#0E141E" stroke-miterlimit="10"/>
<path d="M1.98106 117.763C2.45853 118.24 3.49392 118.916 5.09131 118.074L8.00662 116.512L8.10068 77.1456L5.19281 75.5971C3.89822 74.9022 2.98029 75.1437 2.44113 75.4441C0.883431 76.3652 0.717601 78.9979 0.715027 80.0748L0.634982 113.578C0.631742 114.934 0.986318 116.768 1.96116 117.743L1.98106 117.763ZM6.57287 115.638L4.41632 116.8C3.63756 117.22 3.23929 116.982 3.00055 116.743C2.46339 116.206 2.08759 114.911 2.09073 113.595L2.17078 80.0913C2.17478 78.4161 2.57687 77.0591 3.176 76.6987C3.47557 76.5185 3.9341 76.5772 4.51171 76.875L6.66273 78.0265L6.57277 115.678L6.57287 115.638Z" fill="#0E141E" stroke="#0E141E" stroke-miterlimit="10"/>
<rect x="51" y="52" width="90" height="90" rx="45" fill="white" stroke="#0E141E" stroke-width="2"/>
</svg>
