<svg width="92" height="192" viewBox="0 0 92 192" fill="none" xmlns="http://www.w3.org/2000/svg">
<path fill-rule="evenodd" clip-rule="evenodd" d="M30.8623 41.6165L61.1258 41.6442C63.2034 41.646 64.9071 39.9423 64.9052 37.8647L64.8766 6.50358L27.0473 6.46903L27.0759 37.8301C27.0778 39.9078 28.7846 41.6146 30.8623 41.6165Z" fill="white" stroke="#0E141E" stroke-miterlimit="10"/>
<path d="M65.7123 5.47429L65.7162 37.7503C65.7165 40.2361 63.6847 42.2679 61.1989 42.2676L30.7379 42.264C28.331 42.2637 26.2198 40.1525 26.2195 37.7456L26.2157 5.46959L65.7123 5.47429ZM28.5477 39.916C29.1397 40.508 29.9288 40.8237 30.718 40.8238L61.179 40.8274C62.8756 40.8276 64.2762 39.4271 64.276 37.7304L64.2723 6.87485L27.6165 6.87049L27.6202 37.726C27.6203 38.5546 27.9558 39.3241 28.528 39.8963L28.5477 39.916Z" fill="#0E141E" stroke="#0E141E" stroke-miterlimit="10"/>
<path fill-rule="evenodd" clip-rule="evenodd" d="M29.9162 2.13948L63.2453 1.76225C65.3482 1.73845 68.373 2.63652 67.0358 5.11135L65.6585 7.62631L27.3696 8.05968L26.0689 5.55519C24.6318 2.83406 27.8333 2.14323 29.9362 2.11942L29.9162 2.13948Z" fill="white" stroke="#0E141E" stroke-miterlimit="10"/>
<path d="M66.9811 2.53035C67.4586 3.00783 68.1364 4.04099 67.31 5.62336L65.7751 8.5111L26.6518 8.36209L25.0949 5.46259C24.3963 4.1717 24.6307 3.26091 24.9259 2.72692C25.8317 1.18449 28.4473 1.0359 29.5175 1.03998L62.8139 1.16679C64.1616 1.17192 65.9864 1.53561 66.9612 2.51045L66.9811 2.53035ZM64.8976 7.08079L66.039 4.94468C66.4522 4.17331 66.2129 3.77602 65.9742 3.53728C65.437 3.00012 64.1473 2.61865 62.8392 2.61367L29.5428 2.48686C27.878 2.48052 26.5318 2.87178 26.1773 3.465C26.0001 3.76161 26.0613 4.21768 26.3608 4.79357L27.5184 6.93842L64.9373 7.08094L64.8976 7.08079Z" fill="#0E141E" stroke="#0E141E" stroke-miterlimit="10"/>
<path fill-rule="evenodd" clip-rule="evenodd" d="M30.8764 151.012H61.1236C63.2002 151.012 64.9045 152.716 64.9045 154.793L64.9045 186.137H27.0955L27.0955 154.793C27.0955 152.716 28.7998 151.012 30.8764 151.012Z" fill="white" stroke="#0E141E" stroke-miterlimit="10"/>
<path d="M65.7221 187.148L65.7091 154.902C65.7081 152.419 63.6771 150.388 61.1936 150.387L30.7609 150.374C28.3563 150.373 26.2481 152.482 26.2491 154.886L26.2621 187.132L65.7221 187.148ZM28.574 152.719C29.1651 152.128 29.9534 151.813 30.7418 151.813L61.1745 151.825C62.8696 151.826 64.2696 153.226 64.2703 154.921L64.2827 185.748L27.6609 185.733L27.6485 154.906C27.6482 154.079 27.983 153.31 28.5543 152.739L28.574 152.719Z" fill="#0E141E" stroke="#0E141E" stroke-miterlimit="10"/>
<path fill-rule="evenodd" clip-rule="evenodd" d="M29.6994 190.2L63.2069 190.803C65.321 190.841 68.3557 189.959 66.9948 187.462L65.5933 184.924L27.0997 184.231L25.809 186.74C24.3826 189.466 27.6056 190.182 29.7197 190.22L29.6994 190.2Z" fill="white" stroke="#0E141E" stroke-miterlimit="10"/>
<path d="M66.9506 190.049C67.4274 189.573 68.102 188.539 67.2618 186.944L65.7016 184.033L26.3923 183.939L24.846 186.842C24.1521 188.135 24.3933 189.052 24.6933 189.59C25.613 191.146 28.242 191.311 29.3173 191.314L62.772 191.394C64.1261 191.397 65.9573 191.043 66.9307 190.069L66.9506 190.049ZM64.8288 185.464L65.989 187.618C66.409 188.395 66.171 188.793 65.9326 189.031C65.3962 189.568 64.1027 189.943 62.7884 189.94L29.3337 189.86C27.661 189.856 26.3059 189.455 25.9461 188.856C25.7661 188.557 25.8248 188.099 26.1221 187.523L27.2719 185.375L64.8687 185.464L64.8288 185.464Z" fill="#0E141E" stroke="#0E141E" stroke-miterlimit="10"/>
<rect x="1" y="141" width="90" height="90" rx="45" transform="rotate(-90 1 141)" fill="white" stroke="#0E141E" stroke-width="2"/>

</svg>
