<svg width="22" height="26" viewBox="0 0 22 26" fill="none" xmlns="http://www.w3.org/2000/svg">
<path d="M10.3312 25.9571C9.52233 25.8395 8.75817 25.5109 8.11482 25.0042C7.85817 24.8363 7.64315 24.6116 7.48625 24.3473C7.32934 24.083 7.23472 23.7861 7.20963 23.4793C7.20963 22.8293 7.80705 22.5251 8.35922 22.3964C10.1006 22.2595 11.8499 22.2595 13.5912 22.3964C14.1434 22.5264 14.7408 22.8241 14.7408 23.4793C14.7164 23.7857 14.6228 24.0824 14.4671 24.3469C14.3113 24.6114 14.0975 24.8367 13.8421 25.0055C13.1984 25.5107 12.435 25.8387 11.6269 25.9571C11.4104 25.9852 11.1923 25.9996 10.9739 26C10.759 26.0004 10.5442 25.986 10.3312 25.9571ZM4.87554 20.4711C3.44383 20.3416 2.10931 19.6879 1.12549 18.6342C0.394818 17.7727 -0.00191849 16.6749 0.00822872 15.5428C-0.0581401 14.4586 0.27877 13.3883 0.953502 12.5398C1.42343 12.0513 1.78806 11.4706 2.02458 10.834C2.2611 10.1974 2.36442 9.51858 2.32809 8.84V8.281C2.23976 6.45972 2.83147 4.67097 3.98717 3.2656C4.84193 2.24708 5.90669 1.4275 7.10772 0.863638C8.30875 0.299773 9.61735 0.00509118 10.9429 0H11.0593C12.416 0.00314659 13.7549 0.311075 14.978 0.90127C16.2012 1.49147 17.2776 2.34901 18.1288 3.4112C19.2205 4.78934 19.7725 6.52165 19.6805 8.281V8.84C19.6502 9.51842 19.7563 10.196 19.9922 10.8324C20.2281 11.4687 20.5892 12.0507 21.0538 12.5437C21.7253 13.392 22.0594 14.4608 21.9913 15.5428C22.0023 16.6752 21.606 17.7735 20.8754 18.6355C19.8912 19.6888 18.5569 20.3424 17.1253 20.4724C15.0938 20.6453 13.0597 20.7935 10.9998 20.7935C8.95393 20.8029 6.90921 20.6953 4.87554 20.4711Z" fill="black"/>
</svg>
