<svg width="143" height="143" viewBox="0 0 143 143" fill="none" xmlns="http://www.w3.org/2000/svg">
<path d="M70.6963 23.6666L78.9037 4.19085H95.7073" stroke="black" stroke-width="6" stroke-miterlimit="10" stroke-linecap="round" stroke-linejoin="round"/>
<path d="M65.4935 138.809H17.5474L9.51799 68.6911" stroke="black" stroke-width="6" stroke-miterlimit="10" stroke-linecap="round" stroke-linejoin="round"/>
<path d="M86.8641 68.6911L84.9542 85.3685" stroke="black" stroke-width="6" stroke-miterlimit="10" stroke-linecap="round" stroke-linejoin="round"/>
<path d="M12.9402 51.8677V50.7976C12.9402 31.3291 28.7224 15.5469 48.1909 15.5469C67.6593 15.5469 83.4415 31.3291 83.4415 50.7976V51.8677" stroke="black" stroke-width="6" stroke-miterlimit="10" stroke-linecap="round" stroke-linejoin="round"/>
<path d="M92.1029 51.8677H4.27914V68.6909H92.1029V51.8677Z" stroke="black" stroke-width="6" stroke-miterlimit="10" stroke-linecap="round" stroke-linejoin="round"/>
<path d="M131.37 120.821V123.768C131.37 132.038 124.666 138.742 116.397 138.742H65.4935C57.2241 138.742 50.5204 132.038 50.5204 123.768V120.821" stroke="black" stroke-width="6" stroke-miterlimit="10" stroke-linecap="round" stroke-linejoin="round"/>
<path d="M50.5204 104.965V100.342C50.5204 92.0725 57.2241 85.3688 65.4935 85.3688H116.397C124.666 85.3688 131.37 92.0725 131.37 100.342V104.965" stroke="black" stroke-width="6" stroke-miterlimit="10" stroke-linecap="round" stroke-linejoin="round"/>
<path d="M96.5757 120.821H51.098C46.7194 120.821 43.1697 117.272 43.1697 112.893C43.1697 108.515 46.7194 104.965 51.098 104.965H130.793C135.171 104.965 138.721 108.515 138.721 112.893C138.721 117.272 135.171 120.821 130.793 120.821H106.478" stroke="black" stroke-width="6" stroke-miterlimit="10" stroke-linecap="round" stroke-linejoin="round"/>
<path d="M117.382 104.965L105.187 122.698C103.619 125.617 99.4325 125.617 97.864 122.698L85.6918 104.965" stroke="black" stroke-width="6" stroke-miterlimit="10" stroke-linecap="round" stroke-linejoin="round"/>
</svg>
