<svg width="19" height="20" viewBox="0 0 19 20" fill="none" xmlns="http://www.w3.org/2000/svg">
<path d="M6.635 18.7723V15.7153C6.63539 15.5289 6.67252 15.3444 6.74426 15.1723C6.816 15.0002 6.92094 14.8439 7.05309 14.7124C7.18524 14.5809 7.34201 14.4768 7.51444 14.4059C7.68686 14.335 7.87157 14.2988 8.058 14.2993H10.932C11.3091 14.299 11.6711 14.4478 11.939 14.7133C12.0711 14.8442 12.176 15 12.2475 15.1716C12.3191 15.3432 12.356 15.5273 12.356 15.7133V18.7713C12.3549 18.9322 12.3858 19.0917 12.4469 19.2406C12.508 19.3894 12.5981 19.5246 12.712 19.6383C12.8264 19.7526 12.9622 19.8432 13.1117 19.905C13.2611 19.9667 13.4213 19.9985 13.583 19.9983H15.544C16.4585 20.0009 17.3368 19.6414 17.987 18.9983C18.3074 18.6817 18.5619 18.3047 18.7357 17.8892C18.9096 17.4736 18.9994 17.0278 19 16.5773V7.86631C18.9988 7.50294 18.9175 7.1443 18.762 6.81591C18.6064 6.48751 18.3804 6.19743 18.1 5.96631L11.434 0.675307C10.8702 0.226161 10.1675 -0.0124569 9.44673 0.000501294C8.726 0.0134595 8.03231 0.277184 7.485 0.746307L0.967 5.96431C0.674108 6.18909 0.435241 6.47659 0.267915 6.8057C0.100589 7.13482 0.00904619 7.49721 0 7.86631L0 16.5663C0.00144207 17.0187 0.0919856 17.4663 0.266459 17.8837C0.440933 18.301 0.695918 18.6799 1.01685 18.9987C1.33778 19.3175 1.71838 19.57 2.13689 19.7417C2.55541 19.9133 3.00364 20.0009 3.456 19.9993H5.372C5.69711 20.0006 6.00954 19.8733 6.24111 19.6451C6.47268 19.4169 6.60457 19.1064 6.608 18.7813L6.635 18.7723Z" fill="#200E32"/>
</svg>
