<svg width="20" height="22" viewBox="0 0 20 22" fill="none" xmlns="http://www.w3.org/2000/svg">
<path d="M13.9162 15.6324H6.13228" stroke="#200E32" stroke-width="1.5" stroke-miterlimit="10" stroke-linecap="round" stroke-linejoin="round"/>
<path d="M13.9162 11.089H6.13228" stroke="#200E32" stroke-width="1.5" stroke-miterlimit="10" stroke-linecap="round" stroke-linejoin="round"/>
<path d="M9.10245 6.5554H6.13228" stroke="#200E32" stroke-width="1.5" stroke-miterlimit="10" stroke-linecap="round" stroke-linejoin="round"/>
<path d="M14.1242 1.00914H5.83472C5.17971 0.972866 4.52459 1.07858 3.91365 1.31914C3.30272 1.5597 2.7502 1.9295 2.29344 2.40354C1.83668 2.87758 1.48633 3.44482 1.26606 4.0669C1.0458 4.68899 0.960759 5.35144 1.01669 6.00946V15.9949C0.96132 16.656 1.04813 17.3214 1.27121 17.9457C1.49429 18.57 1.84839 19.1386 2.3094 19.6127C2.77042 20.0868 3.32751 20.4553 3.94274 20.6932C4.55797 20.931 5.21688 21.0325 5.87461 20.9909H14.1641C14.8185 21.027 15.4729 20.9215 16.0834 20.6814C16.6938 20.4413 17.2459 20.0722 17.7027 19.599C18.1594 19.1258 18.51 18.5596 18.7309 17.9384C18.9518 17.3173 19.0379 16.6556 18.9832 15.9982V6.01272C19.0396 5.35093 18.9535 4.68469 18.7308 4.05946C18.5081 3.43422 18.1541 2.86471 17.6928 2.38976C17.2316 1.91481 16.6741 1.54562 16.0582 1.30735C15.4424 1.06909 14.7827 0.967374 14.1242 1.00914V1.00914Z" stroke="#200E32" stroke-width="1.5" stroke-miterlimit="10" stroke-linecap="round" stroke-linejoin="round"/>
</svg>
