<svg width="20" height="19" viewBox="0 0 20 19" fill="none" xmlns="http://www.w3.org/2000/svg">
<path d="M13.9117 8.42084C14.7623 8.42085 15.5781 8.085 16.1801 7.48702C16.7821 6.88904 17.121 6.07779 17.1226 5.23135C17.1226 4.3839 16.7843 3.57116 16.1821 2.97192C15.58 2.37269 14.7633 2.03604 13.9117 2.03604" stroke="#200E32" stroke-width="1.5" stroke-miterlimit="10" stroke-linecap="round" stroke-linejoin="round"/>
<path d="M15.3867 11.8902C15.9161 11.9261 16.442 12.0015 16.9601 12.1158C17.3353 12.1479 17.6989 12.2609 18.0257 12.447C18.3526 12.6331 18.6347 12.8878 18.8526 13.1935C18.9496 13.397 19 13.6194 19 13.8447C19 14.0699 18.9496 14.2923 18.8526 14.4958C18.6343 14.8015 18.3522 15.0565 18.0255 15.2434C17.6988 15.4302 17.3353 15.5445 16.9601 15.5784" stroke="#200E32" stroke-width="1.5" stroke-miterlimit="10" stroke-linecap="round" stroke-linejoin="round"/>
<path d="M7.65628 12.5777C11.2466 12.5777 14.3135 13.1189 14.3135 15.2811C14.3135 17.4432 11.2661 18 7.65628 18C4.06591 18 1 17.4636 1 15.3005C1 13.1373 4.04645 12.5777 7.65628 12.5777Z" stroke="#200E32" stroke-width="1.5" stroke-miterlimit="10" stroke-linecap="round" stroke-linejoin="round"/>
<path d="M7.65627 9.49177C6.81242 9.49177 5.98752 9.24275 5.28588 8.77621C4.58424 8.30967 4.03738 7.64655 3.71446 6.87072C3.39153 6.09488 3.30703 5.24118 3.47166 4.41756C3.63629 3.59393 4.04264 2.83739 4.63934 2.24359C5.23603 1.6498 5.99627 1.24541 6.8239 1.08159C7.65154 0.917757 8.50941 1.00184 9.28903 1.3232C10.0686 1.64456 10.735 2.18877 11.2038 2.887C11.6726 3.58523 11.9229 4.40613 11.9229 5.24589C11.9249 5.80404 11.816 6.35708 11.6023 6.87313C11.3886 7.38919 11.0744 7.85807 10.6778 8.25275C10.2812 8.64742 9.81004 8.96009 9.29146 9.17274C8.77288 9.38539 8.21715 9.49382 7.65627 9.49177V9.49177Z" stroke="#200E32" stroke-width="1.5" stroke-miterlimit="10" stroke-linecap="round" stroke-linejoin="round"/>
</svg>
