<svg width="20" height="18" viewBox="0 0 20 18" fill="none" xmlns="http://www.w3.org/2000/svg">
<path d="M0 14.9182C0 12.4712 3.386 11.8582 7.349 11.8582C11.334 11.8582 14.698 12.4922 14.698 14.9412C14.698 17.3902 11.313 18.0002 7.349 18.0002C3.364 18.0002 0 17.3662 0 14.9182ZM16.633 15.3932C16.974 12.2812 14.267 10.8052 13.566 10.4662C13.5554 10.4619 13.5465 10.4544 13.5406 10.4447C13.5346 10.4349 13.532 10.4236 13.533 10.4122C13.5356 10.4043 13.5406 10.3975 13.5472 10.3925C13.5538 10.3875 13.5617 10.3846 13.57 10.3842C14.827 10.3622 16.0829 10.4691 17.318 10.7032C17.8144 10.7391 18.2955 10.8905 18.723 11.1454C19.1505 11.4003 19.5124 11.7516 19.78 12.1712C19.9251 12.4628 20.0007 12.784 20.0007 13.1097C20.0007 13.4354 19.9251 13.7566 19.78 14.0482C19.248 15.1712 17.534 15.5332 16.868 15.6262H16.838C16.8087 15.626 16.7798 15.6196 16.7531 15.6074C16.7265 15.5953 16.7027 15.5776 16.6833 15.5556C16.664 15.5336 16.6495 15.5078 16.6408 15.4798C16.6321 15.4518 16.6295 15.4223 16.633 15.3932ZM2.487 4.7632C2.49182 4.13073 2.6216 3.50544 2.86887 2.92328C3.11613 2.34112 3.47602 1.81357 3.92784 1.37096C4.37965 0.92834 4.91449 0.579382 5.50161 0.344141C6.08873 0.108899 6.71656 -0.00798641 7.349 0.000201696C7.98152 -0.00811929 8.60946 0.108668 9.19669 0.34385C9.78393 0.579032 10.3189 0.927968 10.7708 1.3706C11.2227 1.81323 11.5827 2.34082 11.83 2.92305C12.0774 3.50527 12.2072 4.13064 12.212 4.7632C12.207 5.39568 12.0771 6.02094 11.8298 6.60305C11.5824 7.18516 11.2224 7.71263 10.7705 8.15516C10.3185 8.59768 9.78363 8.94653 9.19646 9.18165C8.60929 9.41677 7.98144 9.53352 7.349 9.5252C6.71664 9.53339 6.0889 9.41654 5.50184 9.18136C4.91479 8.94618 4.37999 8.59731 3.92819 8.1548C3.47638 7.71229 3.11648 7.18486 2.86915 6.60281C2.62183 6.02077 2.49195 5.39559 2.487 4.7632ZM13.719 8.8222C13.5314 8.8178 13.3442 8.80043 13.159 8.7702C13.1293 8.76599 13.1012 8.7543 13.0773 8.73624C13.0533 8.71818 13.0344 8.69434 13.0222 8.66696C13.01 8.63957 13.005 8.60953 13.0075 8.57967C13.0101 8.5498 13.0203 8.52108 13.037 8.4962C13.7931 7.39868 14.1896 6.0934 14.1717 4.76078C14.1537 3.42815 13.7223 2.134 12.937 1.0572C12.9219 1.04091 12.9122 1.02044 12.909 0.998488C12.9057 0.976537 12.9092 0.954128 12.919 0.934202C12.9423 0.903994 12.9763 0.883933 13.014 0.878202C13.2841 0.825397 13.5588 0.799271 13.834 0.800202C14.4569 0.793169 15.073 0.930099 15.6343 1.20032C16.1956 1.47053 16.6869 1.86673 17.0699 2.35803C17.4528 2.84933 17.7172 3.42244 17.8423 4.0327C17.9674 4.64295 17.9498 5.27385 17.791 5.8762C17.5495 6.73621 17.0297 7.49192 16.313 8.02514C15.5963 8.55836 14.7231 8.83901 13.83 8.8232L13.719 8.8222Z" fill="#200E32"/>
</svg>
