<svg width="42" height="42" viewBox="0 0 42 42" fill="none" xmlns="http://www.w3.org/2000/svg">
<rect x="1.25" y="1.25" width="39.5" height="39.5" rx="2.75" fill="white" stroke="#0E141E" stroke-width="2.5"/>
<path d="M11.85 16.2C11.4833 16.2 11.171 16.075 10.913 15.825C10.6543 15.575 10.525 15.2583 10.525 14.875V11.85C10.525 11.4833 10.6543 11.1707 10.913 10.912C11.171 10.654 11.4833 10.525 11.85 10.525H14.875C15.2583 10.525 15.575 10.654 15.825 10.912C16.075 11.1707 16.2 11.4833 16.2 11.85C16.2 12.2167 16.075 12.529 15.825 12.787C15.575 13.0457 15.2583 13.175 14.875 13.175H13.175V14.875C13.175 15.2583 13.046 15.575 12.788 15.825C12.5293 16.075 12.2167 16.2 11.85 16.2ZM11.85 31.475C11.4833 31.475 11.171 31.3457 10.913 31.087C10.6543 30.829 10.525 30.5167 10.525 30.15V27.125C10.525 26.7417 10.6543 26.425 10.913 26.175C11.171 25.925 11.4833 25.8 11.85 25.8C12.2167 25.8 12.5293 25.925 12.788 26.175C13.046 26.425 13.175 26.7417 13.175 27.125V28.825H14.875C15.2583 28.825 15.575 28.954 15.825 29.212C16.075 29.4707 16.2 29.7833 16.2 30.15C16.2 30.5167 16.075 30.829 15.825 31.087C15.575 31.3457 15.2583 31.475 14.875 31.475H11.85ZM27.125 31.475C26.7417 31.475 26.425 31.3457 26.175 31.087C25.925 30.829 25.8 30.5167 25.8 30.15C25.8 29.7833 25.925 29.4707 26.175 29.212C26.425 28.954 26.7417 28.825 27.125 28.825H28.825V27.125C28.825 26.7417 28.9543 26.425 29.213 26.175C29.471 25.925 29.7833 25.8 30.15 25.8C30.5167 25.8 30.8293 25.925 31.088 26.175C31.346 26.425 31.475 26.7417 31.475 27.125V30.15C31.475 30.5167 31.346 30.829 31.088 31.087C30.8293 31.3457 30.5167 31.475 30.15 31.475H27.125ZM30.15 16.2C29.7833 16.2 29.471 16.075 29.213 15.825C28.9543 15.575 28.825 15.2583 28.825 14.875V13.175H27.125C26.7417 13.175 26.425 13.0457 26.175 12.787C25.925 12.529 25.8 12.2167 25.8 11.85C25.8 11.4833 25.925 11.1707 26.175 10.912C26.425 10.654 26.7417 10.525 27.125 10.525H30.15C30.5167 10.525 30.8293 10.654 31.088 10.912C31.346 11.1707 31.475 11.4833 31.475 11.85V14.875C31.475 15.2583 31.346 15.575 31.088 15.825C30.8293 16.075 30.5167 16.2 30.15 16.2ZM26.5 26.5H28V28H26.5V26.5ZM26.5 23.5H28V25H26.5V23.5ZM25 25H26.5V26.5H25V25ZM23.5 26.5H25V28H23.5V26.5ZM22 25H23.5V26.5H22V25ZM25 22H26.5V23.5H25V22ZM23.5 23.5H25V25H23.5V23.5ZM22 22H23.5V23.5H22V22ZM28 14V20H22V14H28ZM20 22V28H14V22H20ZM20 14V20H14V14H20ZM18.3 26.3V23.7H15.7V26.3H18.3ZM18.3 18.3V15.7H15.7V18.3H18.3ZM26.3 18.3V15.7H23.7V18.3H26.3Z" fill="#0E141E"/>
</svg>
