<svg width="21" height="22" viewBox="0 0 21 22" fill="none" xmlns="http://www.w3.org/2000/svg">
<path d="M19.723 6.56064L19.0586 5.43728C18.7876 4.98147 18.342 4.64888 17.8196 4.5124C17.2972 4.37592 16.7405 4.44668 16.2716 4.70917C16.0413 4.84194 15.7864 4.92906 15.5214 4.96552C15.2565 5.00198 14.9867 4.98706 14.7277 4.92161C14.4686 4.85616 14.2255 4.74148 14.0121 4.58417C13.7988 4.42686 13.6195 4.23003 13.4846 4.00499C13.3091 3.7167 13.2147 3.38841 13.2112 3.05326V3.05326C13.2199 2.78666 13.1735 2.52108 13.0747 2.27229C12.9759 2.0235 12.8268 1.7966 12.6362 1.60505C12.4455 1.41351 12.2173 1.26124 11.965 1.1573C11.7128 1.05336 11.4416 0.999865 11.1677 1H9.82813C9.56043 0.999994 9.29537 1.05156 9.04822 1.15172C8.80106 1.25188 8.5767 1.39866 8.38805 1.58361C8.1994 1.76856 8.05019 1.98803 7.94902 2.22936C7.84784 2.4707 7.7967 2.72914 7.79853 2.98981V2.98981C7.79122 3.51356 7.57211 4.01338 7.18875 4.38083C6.80539 4.74827 6.28869 4.95371 5.75076 4.95257C5.40657 4.9491 5.06941 4.85725 4.77335 4.68629V4.68629C4.30442 4.42379 3.74775 4.35303 3.22533 4.48952C2.70292 4.626 2.25738 4.95859 1.98638 5.4144L1.27281 6.55856C1.00323 7.01517 0.930562 7.55722 1.07073 8.06591C1.21089 8.5746 1.55246 9.00843 2.02056 9.27231V9.27231C2.33136 9.44691 2.58946 9.69812 2.76891 10.0007C2.94837 10.3032 3.04284 10.6465 3.04284 10.9958C3.04284 11.3452 2.94837 11.6885 2.76891 11.991C2.58946 12.2936 2.33136 12.5448 2.02056 12.7194V12.7194C1.78869 12.8487 1.58534 13.0214 1.42218 13.2275C1.25902 13.4336 1.13926 13.669 1.06979 13.9203C1.00031 14.1716 0.982482 14.4338 1.01732 14.6918C1.05216 14.9498 1.13899 15.1985 1.27281 15.4238V15.4238L1.94792 16.5565C2.07817 16.7864 2.25388 16.989 2.46491 17.1525C2.67594 17.316 2.91813 17.4373 3.1775 17.5092C3.43688 17.5811 3.70832 17.6024 3.97616 17.5717C4.244 17.541 4.50296 17.459 4.7381 17.3303V17.3303C4.96923 17.1993 5.22474 17.1142 5.48985 17.0799C5.75496 17.0457 6.02443 17.0629 6.28267 17.1306C6.54092 17.1983 6.78283 17.3151 6.99442 17.4744C7.20602 17.6336 7.3831 17.8322 7.51545 18.0585C7.69102 18.3467 7.78535 18.675 7.78891 19.0102C7.78891 19.5379 8.00421 20.044 8.38744 20.4172C8.77067 20.7904 9.29044 21 9.83241 21H11.1677C11.7072 21 12.2249 20.7922 12.6078 20.422C12.9906 20.0517 13.2075 19.5491 13.2112 19.0237C13.2093 18.7619 13.2609 18.5024 13.363 18.2601C13.465 18.0179 13.6154 17.7978 13.8056 17.6127C13.9957 17.4276 14.2217 17.2811 14.4705 17.1817C14.7192 17.0824 14.9858 17.0321 15.2547 17.0339C15.598 17.0428 15.9338 17.1343 16.2321 17.3002V17.3002C16.701 17.5627 17.2577 17.6334 17.7801 17.497C18.3025 17.3605 18.748 17.0279 19.019 16.5721L19.723 15.4279C19.8583 15.2023 19.9464 14.9527 19.982 14.6938C20.0177 14.4348 20.0002 14.1715 19.9307 13.9191C19.8611 13.6667 19.7409 13.4303 19.5769 13.2235C19.4129 13.0166 19.2084 12.8435 18.9752 12.7142V12.7142C18.7421 12.5848 18.5376 12.4117 18.3736 12.2049C18.2096 11.998 18.0894 11.7616 18.0198 11.5092C17.9503 11.2568 17.9328 10.9936 17.9685 10.7346C18.0041 10.4756 18.0922 10.2261 18.2275 10.0004C18.4053 9.6969 18.6635 9.44544 18.9752 9.27231V9.27231C19.4408 9.00847 19.7805 8.57635 19.9205 8.06991C20.0605 7.56347 19.9895 7.02367 19.723 6.56792V6.56792V6.56064Z" stroke="#200E32" stroke-width="1.5" stroke-miterlimit="10" stroke-linecap="round" stroke-linejoin="round"/>
<path d="M10.5021 13.7388C12.0572 13.7388 13.3179 12.5113 13.3179 10.997C13.3179 9.48274 12.0572 8.25518 10.5021 8.25518C8.94695 8.25518 7.68626 9.48274 7.68626 10.997C7.68626 12.5113 8.94695 13.7388 10.5021 13.7388Z" stroke="#200E32" stroke-width="1.5" stroke-miterlimit="10" stroke-linecap="round" stroke-linejoin="round"/>
</svg>
