<svg width="92" height="192" viewBox="0 0 92 192" fill="none" xmlns="http://www.w3.org/2000/svg">
<path fill-rule="evenodd" clip-rule="evenodd" d="M30.8623 41.6165L61.1258 41.6442C63.2034 41.646 64.9071 39.9423 64.9052 37.8647L64.8766 6.50358L27.0473 6.46903L27.0759 37.8301C27.0778 39.9078 28.7846 41.6146 30.8623 41.6165Z" fill="white" stroke="#0E141E" stroke-miterlimit="10"/>
<path d="M65.7123 5.47429L65.7162 37.7503C65.7165 40.2361 63.6847 42.2679 61.1989 42.2676L30.7379 42.264C28.331 42.2637 26.2198 40.1525 26.2195 37.7456L26.2157 5.46959L65.7123 5.47429ZM28.5477 39.916C29.1397 40.508 29.9288 40.8237 30.718 40.8238L61.179 40.8274C62.8756 40.8276 64.2762 39.4271 64.276 37.7304L64.2723 6.87485L27.6165 6.87049L27.6202 37.726C27.6203 38.5546 27.9558 39.3241 28.528 39.8963L28.5477 39.916Z" fill="#0E141E" stroke="#0E141E" stroke-miterlimit="10"/>
<path fill-rule="evenodd" clip-rule="evenodd" d="M29.9162 2.13947L63.2453 1.76224C65.3482 1.73844 68.373 2.63651 67.0358 5.11134L65.6585 7.6263L27.3696 8.05966L26.0689 5.55518C24.6318 2.83405 27.8333 2.14321 29.9362 2.11941L29.9162 2.13947Z" fill="white" stroke="#0E141E" stroke-miterlimit="10"/>
<path d="M66.9811 2.53035C67.4586 3.00782 68.1364 4.04099 67.31 5.62336L65.7751 8.51109L26.6518 8.36209L25.0949 5.46259C24.3963 4.17169 24.6307 3.26091 24.9259 2.72692C25.8317 1.18449 28.4473 1.0359 29.5175 1.03997L62.8139 1.16679C64.1616 1.17192 65.9864 1.53561 66.9612 2.51045L66.9811 2.53035ZM64.8976 7.08078L66.039 4.94467C66.4522 4.17331 66.2129 3.77602 65.9742 3.53728C65.437 3.00012 64.1473 2.61865 62.8392 2.61367L29.5428 2.48685C27.878 2.48051 26.5318 2.87178 26.1773 3.46499C26.0001 3.7616 26.0613 4.21767 26.3608 4.79356L27.5184 6.93842L64.9373 7.08093L64.8976 7.08078Z" fill="#0E141E" stroke="#0E141E" stroke-miterlimit="10"/>
<path fill-rule="evenodd" clip-rule="evenodd" d="M30.8764 151.012H61.1236C63.2002 151.012 64.9045 152.716 64.9045 154.793L64.9045 186.137H27.0955L27.0955 154.793C27.0955 152.716 28.7998 151.012 30.8764 151.012Z" fill="white" stroke="#0E141E" stroke-miterlimit="10"/>
<path d="M65.7221 187.148L65.7091 154.902C65.7081 152.419 63.6771 150.388 61.1936 150.387L30.7609 150.374C28.3563 150.373 26.2481 152.482 26.2491 154.886L26.2621 187.132L65.7221 187.148ZM28.574 152.719C29.1651 152.128 29.9534 151.813 30.7418 151.813L61.1745 151.825C62.8696 151.826 64.2696 153.226 64.2703 154.921L64.2827 185.748L27.6609 185.733L27.6485 154.906C27.6482 154.079 27.983 153.31 28.5543 152.739L28.574 152.719Z" fill="#0E141E" stroke="#0E141E" stroke-miterlimit="10"/>
<path fill-rule="evenodd" clip-rule="evenodd" d="M29.6994 190.2L63.2069 190.803C65.321 190.841 68.3557 189.959 66.9948 187.462L65.5933 184.924L27.0997 184.231L25.809 186.74C24.3826 189.466 27.6056 190.182 29.7197 190.22L29.6994 190.2Z" fill="white" stroke="#0E141E" stroke-miterlimit="10"/>
<path d="M66.9506 190.049C67.4274 189.573 68.102 188.539 67.2618 186.944L65.7016 184.033L26.3923 183.939L24.846 186.842C24.1521 188.135 24.3933 189.052 24.6933 189.59C25.613 191.146 28.242 191.311 29.3173 191.314L62.772 191.394C64.1261 191.397 65.9573 191.043 66.9307 190.069L66.9506 190.049ZM64.8288 185.464L65.989 187.618C66.409 188.395 66.171 188.793 65.9326 189.031C65.3962 189.568 64.1027 189.943 62.7884 189.94L29.3337 189.86C27.661 189.856 26.3059 189.455 25.9461 188.856C25.7661 188.557 25.8248 188.099 26.1221 187.523L27.2719 185.375L64.8687 185.464L64.8288 185.464Z" fill="#0E141E" stroke="#0E141E" stroke-miterlimit="10"/>
<rect x="1" y="141" width="90" height="90" rx="45" transform="rotate(-90 1 141)" fill="white" stroke="#0E141E" stroke-width="2"/>
<path d="M45.5781 90.6016V102H43.3281V93.1953L40.625 94.0547V92.2812L45.3359 90.6016H45.5781ZM56.9375 95.3125V97.2812C56.9375 98.1354 56.8464 98.8724 56.6641 99.4922C56.4818 100.107 56.2188 100.612 55.875 101.008C55.5365 101.398 55.1328 101.688 54.6641 101.875C54.1953 102.062 53.6745 102.156 53.1016 102.156C52.6432 102.156 52.2161 102.099 51.8203 101.984C51.4245 101.865 51.0677 101.68 50.75 101.43C50.4375 101.18 50.1667 100.865 49.9375 100.484C49.7135 100.099 49.5417 99.6406 49.4219 99.1094C49.3021 98.5781 49.2422 97.9688 49.2422 97.2812V95.3125C49.2422 94.4583 49.3333 93.7266 49.5156 93.1172C49.7031 92.5026 49.9661 92 50.3047 91.6094C50.6484 91.2188 51.0547 90.9323 51.5234 90.75C51.9922 90.5625 52.513 90.4688 53.0859 90.4688C53.5443 90.4688 53.9688 90.5286 54.3594 90.6484C54.7552 90.763 55.112 90.9427 55.4297 91.1875C55.7474 91.4323 56.0182 91.7474 56.2422 92.1328C56.4661 92.513 56.638 92.9688 56.7578 93.5C56.8776 94.026 56.9375 94.6302 56.9375 95.3125ZM54.6797 97.5781V95.0078C54.6797 94.5964 54.6562 94.237 54.6094 93.9297C54.5677 93.6224 54.5026 93.362 54.4141 93.1484C54.3255 92.9297 54.2161 92.7526 54.0859 92.6172C53.9557 92.4818 53.8073 92.3828 53.6406 92.3203C53.474 92.2578 53.2891 92.2266 53.0859 92.2266C52.8307 92.2266 52.6042 92.276 52.4062 92.375C52.2135 92.474 52.0495 92.6328 51.9141 92.8516C51.7786 93.0651 51.6745 93.3516 51.6016 93.7109C51.5339 94.0651 51.5 94.4974 51.5 95.0078V97.5781C51.5 97.9896 51.5208 98.3516 51.5625 98.6641C51.6094 98.9766 51.6771 99.2448 51.7656 99.4688C51.8594 99.6875 51.9688 99.8672 52.0938 100.008C52.224 100.143 52.3724 100.242 52.5391 100.305C52.7109 100.367 52.8984 100.398 53.1016 100.398C53.3516 100.398 53.5729 100.349 53.7656 100.25C53.9635 100.146 54.1302 99.9844 54.2656 99.7656C54.4062 99.5417 54.5104 99.25 54.5781 98.8906C54.6458 98.5312 54.6797 98.0938 54.6797 97.5781Z" fill="black"/>
</svg>
