<svg width="192" height="92" viewBox="0 0 192 92" fill="none" xmlns="http://www.w3.org/2000/svg">
<path fill-rule="evenodd" clip-rule="evenodd" d="M150.383 30.8623L150.356 61.1258C150.354 63.2034 152.058 64.9071 154.135 64.9052L185.496 64.8766L185.531 27.0473L154.17 27.0759C152.092 27.0778 150.385 28.7846 150.383 30.8623Z" fill="white" stroke="#0E141E" stroke-miterlimit="10"/>
<path d="M186.526 65.7123L154.25 65.7162C151.764 65.7165 149.732 63.6847 149.732 61.1989L149.736 30.7379C149.736 28.331 151.848 26.2198 154.254 26.2195L186.53 26.2156L186.526 65.7123ZM152.084 28.5477C151.492 29.1397 151.176 29.9288 151.176 30.718L151.173 61.179C151.172 62.8756 152.573 64.2762 154.27 64.276L185.125 64.2723L185.13 27.6165L154.274 27.6202C153.445 27.6203 152.676 27.9558 152.104 28.528L152.084 28.5477Z" fill="#0E141E" stroke="#0E141E" stroke-miterlimit="10"/>
<path fill-rule="evenodd" clip-rule="evenodd" d="M189.861 29.916L190.238 63.2452C190.262 65.3481 189.364 68.3729 186.889 67.0357L184.374 65.6584L183.94 27.3695L186.445 26.0688C189.166 24.6317 189.857 27.8332 189.881 29.9361L189.861 29.916Z" fill="white" stroke="#0E141E" stroke-miterlimit="10"/>
<path d="M189.47 66.981C188.992 67.4585 187.959 68.1363 186.377 67.3099L183.489 65.775L183.638 26.6518L186.537 25.0948C187.828 24.3963 188.739 24.6306 189.273 24.9259C190.816 25.8317 190.964 28.4472 190.96 29.5175L190.833 62.8139C190.828 64.1616 190.464 65.9863 189.49 66.9611L189.47 66.981ZM184.919 64.8975L187.055 66.0389C187.827 66.4522 188.224 66.2128 188.463 65.9741C189 65.4369 189.381 64.1473 189.386 62.8392L189.513 29.5428C189.52 27.878 189.128 26.5318 188.535 26.1773C188.238 26 187.782 26.0612 187.206 26.3607L185.062 27.5184L184.919 64.9372L184.919 64.8975Z" fill="#0E141E" stroke="#0E141E" stroke-miterlimit="10"/>
<path fill-rule="evenodd" clip-rule="evenodd" d="M40.9879 30.8764V61.1236C40.9879 63.2002 39.2836 64.9045 37.207 64.9045L5.86277 64.9045V27.0955L37.207 27.0955C39.2836 27.0955 40.9879 28.7998 40.9879 30.8764Z" fill="white" stroke="#0E141E" stroke-miterlimit="10"/>
<path d="M4.85191 65.7221L37.098 65.7091C39.5815 65.7081 41.6124 63.6771 41.6134 61.1936L41.6257 30.7609C41.6266 28.3563 39.5185 26.2481 37.1138 26.2491L4.86778 26.2621L4.85191 65.7221ZM39.281 28.574C39.8721 29.1651 40.1871 29.9534 40.1868 30.7418L40.1746 61.1745C40.1739 62.8696 38.7739 64.2696 37.0788 64.2703L6.25192 64.2827L6.26665 27.6609L37.0936 27.6485C37.9214 27.6482 38.69 27.983 39.2613 28.5543L39.281 28.574Z" fill="#0E141E" stroke="#0E141E" stroke-miterlimit="10"/>
<path fill-rule="evenodd" clip-rule="evenodd" d="M1.8001 29.6994L1.19685 63.2069C1.15879 65.321 2.04126 68.3557 4.53813 66.9948L7.07561 65.5933L7.76862 27.0997L5.25967 25.809C2.53385 24.3826 1.81786 27.6056 1.77979 29.7197L1.8001 29.6994Z" fill="white" stroke="#0E141E" stroke-miterlimit="10"/>
<path d="M1.95051 66.9506C2.42729 67.4274 3.46117 68.102 5.05625 67.2618L7.96734 65.7016L8.06126 26.3923L5.1576 24.846C3.86489 24.1521 2.94829 24.3933 2.40991 24.6933C0.854468 25.613 0.688876 28.242 0.686307 29.3173L0.606379 62.772C0.603143 64.1261 0.957205 65.9573 1.93064 66.9307L1.95051 66.9506ZM6.53566 64.8288L4.38224 65.989C3.60461 66.409 3.20691 66.171 2.96852 65.9326C2.43214 65.3962 2.05688 64.1027 2.06002 62.7884L2.13995 29.3337C2.14394 27.661 2.54546 26.3059 3.14372 25.9461C3.44285 25.7661 3.90071 25.8248 4.47749 26.1221L6.62539 27.2719L6.53556 64.8687L6.53566 64.8288Z" fill="#0E141E" stroke="#0E141E" stroke-miterlimit="10"/>
<rect x="51" y="1" width="90" height="90" rx="45" fill="white" stroke="#0E141E" stroke-width="2"/>
<path d="M93.5781 38.6016V50H91.3281V41.1953L88.625 42.0547V40.2812L93.3359 38.6016H93.5781ZM99.5859 43.3359H100.789C101.174 43.3359 101.492 43.2708 101.742 43.1406C101.992 43.0052 102.177 42.8177 102.297 42.5781C102.422 42.3333 102.484 42.0495 102.484 41.7266C102.484 41.4349 102.427 41.1771 102.312 40.9531C102.203 40.724 102.034 40.5469 101.805 40.4219C101.576 40.2917 101.286 40.2266 100.938 40.2266C100.661 40.2266 100.406 40.2812 100.172 40.3906C99.9375 40.5 99.75 40.6536 99.6094 40.8516C99.4688 41.0495 99.3984 41.2891 99.3984 41.5703H97.1406C97.1406 40.9453 97.3073 40.401 97.6406 39.9375C97.9792 39.474 98.4323 39.112 99 38.8516C99.5677 38.5911 100.193 38.4609 100.875 38.4609C101.646 38.4609 102.32 38.5859 102.898 38.8359C103.477 39.0807 103.927 39.4427 104.25 39.9219C104.573 40.401 104.734 40.9948 104.734 41.7031C104.734 42.0625 104.651 42.4115 104.484 42.75C104.318 43.0833 104.078 43.3854 103.766 43.6562C103.458 43.9219 103.083 44.1354 102.641 44.2969C102.198 44.4531 101.701 44.5312 101.148 44.5312H99.5859V43.3359ZM99.5859 45.0469V43.8828H101.148C101.768 43.8828 102.312 43.9531 102.781 44.0938C103.25 44.2344 103.643 44.4375 103.961 44.7031C104.279 44.9635 104.518 45.2734 104.68 45.6328C104.841 45.987 104.922 46.3802 104.922 46.8125C104.922 47.3438 104.82 47.8177 104.617 48.2344C104.414 48.6458 104.128 48.9948 103.758 49.2812C103.393 49.5677 102.966 49.7865 102.477 49.9375C101.987 50.0833 101.453 50.1562 100.875 50.1562C100.396 50.1562 99.9245 50.0911 99.4609 49.9609C99.0026 49.8255 98.5859 49.625 98.2109 49.3594C97.8411 49.0885 97.5443 48.75 97.3203 48.3438C97.1016 47.9323 96.9922 47.4453 96.9922 46.8828H99.25C99.25 47.1745 99.3229 47.4349 99.4688 47.6641C99.6146 47.8932 99.8151 48.0729 100.07 48.2031C100.331 48.3333 100.62 48.3984 100.938 48.3984C101.297 48.3984 101.604 48.3333 101.859 48.2031C102.12 48.0677 102.318 47.8802 102.453 47.6406C102.594 47.3958 102.664 47.112 102.664 46.7891C102.664 46.3724 102.589 46.0391 102.438 45.7891C102.286 45.5339 102.07 45.3464 101.789 45.2266C101.508 45.1068 101.174 45.0469 100.789 45.0469H99.5859Z" fill="#0E141E"/>
</svg>
