<svg width="192" height="92" viewBox="0 0 192 92" fill="none" xmlns="http://www.w3.org/2000/svg">
<path fill-rule="evenodd" clip-rule="evenodd" d="M150.383 30.8623L150.356 61.1258C150.354 63.2034 152.058 64.9071 154.135 64.9052L185.496 64.8766L185.531 27.0473L154.17 27.0759C152.092 27.0778 150.385 28.7846 150.383 30.8623Z" fill="white" stroke="#0E141E" stroke-miterlimit="10"/>
<path d="M186.526 65.7123L154.25 65.7162C151.764 65.7165 149.732 63.6847 149.732 61.1989L149.736 30.7379C149.736 28.331 151.848 26.2198 154.254 26.2195L186.53 26.2156L186.526 65.7123ZM152.084 28.5477C151.492 29.1397 151.176 29.9288 151.176 30.718L151.173 61.179C151.172 62.8756 152.573 64.2762 154.27 64.276L185.125 64.2723L185.13 27.6165L154.274 27.6202C153.445 27.6203 152.676 27.9558 152.104 28.528L152.084 28.5477Z" fill="#0E141E" stroke="#0E141E" stroke-miterlimit="10"/>
<path fill-rule="evenodd" clip-rule="evenodd" d="M189.861 29.916L190.238 63.2452C190.262 65.3481 189.364 68.3729 186.889 67.0357L184.374 65.6584L183.94 27.3695L186.445 26.0688C189.166 24.6317 189.857 27.8332 189.881 29.9361L189.861 29.916Z" fill="white" stroke="#0E141E" stroke-miterlimit="10"/>
<path d="M189.47 66.981C188.992 67.4585 187.959 68.1363 186.377 67.3099L183.489 65.775L183.638 26.6518L186.537 25.0948C187.828 24.3963 188.739 24.6306 189.273 24.9259C190.816 25.8317 190.964 28.4472 190.96 29.5175L190.833 62.8139C190.828 64.1616 190.464 65.9863 189.49 66.9611L189.47 66.981ZM184.919 64.8975L187.055 66.0389C187.827 66.4522 188.224 66.2128 188.463 65.9741C189 65.4369 189.381 64.1473 189.386 62.8392L189.513 29.5428C189.52 27.878 189.128 26.5318 188.535 26.1773C188.238 26 187.782 26.0612 187.206 26.3607L185.062 27.5184L184.919 64.9372L184.919 64.8975Z" fill="#0E141E" stroke="#0E141E" stroke-miterlimit="10"/>
<path fill-rule="evenodd" clip-rule="evenodd" d="M40.9879 30.8764V61.1236C40.9879 63.2002 39.2836 64.9045 37.207 64.9045L5.86277 64.9045V27.0955L37.207 27.0955C39.2836 27.0955 40.9879 28.7998 40.9879 30.8764Z" fill="white" stroke="#0E141E" stroke-miterlimit="10"/>
<path d="M4.85191 65.7221L37.098 65.7091C39.5815 65.7081 41.6124 63.6771 41.6134 61.1936L41.6257 30.7609C41.6266 28.3563 39.5185 26.2481 37.1138 26.2491L4.86778 26.2621L4.85191 65.7221ZM39.281 28.574C39.8721 29.1651 40.1871 29.9534 40.1868 30.7418L40.1746 61.1745C40.1739 62.8696 38.7739 64.2696 37.0788 64.2703L6.25192 64.2827L6.26665 27.6609L37.0936 27.6485C37.9214 27.6482 38.69 27.983 39.2613 28.5543L39.281 28.574Z" fill="#0E141E" stroke="#0E141E" stroke-miterlimit="10"/>
<path fill-rule="evenodd" clip-rule="evenodd" d="M1.8001 29.6994L1.19685 63.2069C1.15879 65.321 2.04126 68.3557 4.53813 66.9948L7.07561 65.5933L7.76862 27.0997L5.25967 25.809C2.53385 24.3826 1.81786 27.6056 1.77979 29.7197L1.8001 29.6994Z" fill="white" stroke="#0E141E" stroke-miterlimit="10"/>
<path d="M1.95051 66.9506C2.42729 67.4274 3.46117 68.102 5.05625 67.2618L7.96734 65.7016L8.06126 26.3923L5.1576 24.846C3.86489 24.1521 2.94829 24.3933 2.40991 24.6933C0.854468 25.613 0.688876 28.242 0.686307 29.3173L0.606379 62.772C0.603143 64.1261 0.957205 65.9573 1.93064 66.9307L1.95051 66.9506ZM6.53566 64.8288L4.38224 65.989C3.60461 66.409 3.20691 66.171 2.96852 65.9326C2.43214 65.3962 2.05688 64.1027 2.06002 62.7884L2.13995 29.3337C2.14394 27.661 2.54546 26.3059 3.14372 25.9461C3.44285 25.7661 3.90071 25.8248 4.47749 26.1221L6.62539 27.2719L6.53556 64.8687L6.53566 64.8288Z" fill="#0E141E" stroke="#0E141E" stroke-miterlimit="10"/>
<rect x="51" y="1" width="90" height="90" rx="45" fill="white" stroke="#0E141E" stroke-width="2"/>
<path d="M93.5781 38.6016V50H91.3281V41.1953L88.625 42.0547V40.2812L93.3359 38.6016H93.5781ZM105.062 48.2422V50H97.2812V48.5L100.961 44.5547C101.331 44.1432 101.622 43.7812 101.836 43.4688C102.049 43.151 102.203 42.8672 102.297 42.6172C102.396 42.362 102.445 42.1198 102.445 41.8906C102.445 41.5469 102.388 41.2526 102.273 41.0078C102.159 40.7578 101.99 40.5651 101.766 40.4297C101.547 40.2943 101.276 40.2266 100.953 40.2266C100.609 40.2266 100.312 40.3099 100.062 40.4766C99.8177 40.6432 99.6302 40.875 99.5 41.1719C99.375 41.4688 99.3125 41.8047 99.3125 42.1797H97.0547C97.0547 41.5026 97.2161 40.8828 97.5391 40.3203C97.862 39.7526 98.3177 39.3021 98.9062 38.9688C99.4948 38.6302 100.193 38.4609 101 38.4609C101.797 38.4609 102.469 38.5911 103.016 38.8516C103.568 39.1068 103.984 39.4766 104.266 39.9609C104.552 40.4401 104.695 41.013 104.695 41.6797C104.695 42.0547 104.635 42.4219 104.516 42.7812C104.396 43.1354 104.224 43.4896 104 43.8438C103.781 44.1927 103.516 44.5469 103.203 44.9062C102.891 45.2656 102.544 45.638 102.164 46.0234L100.188 48.2422H105.062Z" fill="#0E141E"/>
</svg>
