<svg width="192" height="294" viewBox="0 0 192 294" fill="none" xmlns="http://www.w3.org/2000/svg">
<path fill-rule="evenodd" clip-rule="evenodd" d="M150.496 81.644L150.469 111.908C150.467 113.985 152.17 115.689 154.248 115.687L185.609 115.658L185.644 77.829L154.283 77.8577C152.205 77.8596 150.498 79.5664 150.496 81.644Z" fill="white" stroke="#0E141E" stroke-miterlimit="10"/>
<path d="M186.639 116.494L154.362 116.498C151.877 116.498 149.845 114.466 149.845 111.981L149.849 81.5196C149.849 79.1127 151.96 77.0015 154.367 77.0012L186.643 76.9974L186.639 116.494ZM152.197 79.3295C151.605 79.9214 151.289 80.7106 151.289 81.4997L151.285 111.961C151.285 113.657 152.686 115.058 154.382 115.058L185.238 115.054L185.242 78.3983L154.387 78.402C153.558 78.4021 152.789 78.7375 152.216 79.3097L152.197 79.3295Z" fill="#0E141E" stroke="#0E141E" stroke-miterlimit="10"/>
<path fill-rule="evenodd" clip-rule="evenodd" d="M189.973 80.6978L190.351 114.027C190.374 116.13 189.476 119.155 187.001 117.817L184.486 116.44L184.053 78.1512L186.558 76.8505C189.279 75.4135 189.97 78.6149 189.993 80.7178L189.973 80.6978Z" fill="white" stroke="#0E141E" stroke-miterlimit="10"/>
<path d="M189.582 117.763C189.105 118.24 188.072 118.918 186.489 118.092L183.602 116.557L183.751 77.4335L186.65 75.8766C187.941 75.178 188.852 75.4124 189.386 75.7076C190.928 76.6134 191.077 79.229 191.073 80.2992L190.946 113.596C190.941 114.943 190.577 116.768 189.602 117.743L189.582 117.763ZM185.032 115.679L187.168 116.821C187.939 117.234 188.337 116.995 188.576 116.756C189.113 116.219 189.494 114.929 189.499 113.621L189.626 80.3245C189.632 78.6597 189.241 77.3135 188.648 76.959C188.351 76.7818 187.895 76.843 187.319 77.1425L185.174 78.3001L185.032 115.719L185.032 115.679Z" fill="#0E141E" stroke="#0E141E" stroke-miterlimit="10"/>
<path fill-rule="evenodd" clip-rule="evenodd" d="M150.496 171.753L150.469 202.017C150.467 204.094 152.17 205.798 154.248 205.796L185.609 205.767L185.644 167.938L154.283 167.967C152.205 167.969 150.498 169.676 150.496 171.753Z" fill="white" stroke="#0E141E" stroke-miterlimit="10"/>
<path d="M186.639 206.603L154.362 206.607C151.877 206.607 149.845 204.576 149.845 202.09L149.849 171.629C149.849 169.222 151.96 167.111 154.367 167.11L186.643 167.107L186.639 206.603ZM152.197 169.439C151.605 170.031 151.289 170.82 151.289 171.609L151.285 202.07C151.285 203.766 152.686 205.167 154.382 205.167L185.238 205.163L185.242 168.507L154.387 168.511C153.558 168.511 152.789 168.847 152.216 169.419L152.197 169.439Z" fill="#0E141E" stroke="#0E141E" stroke-miterlimit="10"/>
<path fill-rule="evenodd" clip-rule="evenodd" d="M189.973 170.807L190.351 204.136C190.374 206.239 189.476 209.264 187.001 207.927L184.486 206.549L184.053 168.26L186.558 166.96C189.279 165.523 189.97 168.724 189.993 170.827L189.973 170.807Z" fill="white" stroke="#0E141E" stroke-miterlimit="10"/>
<path d="M189.582 207.872C189.105 208.349 188.072 209.027 186.489 208.201L183.602 206.666L183.751 167.543L186.65 165.986C187.941 165.287 188.852 165.521 189.386 165.817C190.928 166.723 191.077 169.338 191.073 170.408L190.946 203.705C190.941 205.052 190.577 206.877 189.602 207.852L189.582 207.872ZM185.032 205.788L187.168 206.93C187.939 207.343 188.337 207.104 188.576 206.865C189.113 206.328 189.494 205.038 189.499 203.73L189.626 170.434C189.632 168.769 189.241 167.423 188.648 167.068C188.351 166.891 187.895 166.952 187.319 167.252L185.174 168.409L185.032 205.828L185.032 205.788Z" fill="#0E141E" stroke="#0E141E" stroke-miterlimit="10"/>
<path fill-rule="evenodd" clip-rule="evenodd" d="M110.919 252.715L80.656 252.687C78.5783 252.685 76.8746 254.389 76.8765 256.466L76.9051 287.827L114.734 287.862L114.706 256.501C114.704 254.423 112.997 252.716 110.919 252.715Z" fill="white" stroke="#0E141E" stroke-miterlimit="10"/>
<path d="M76.0694 288.857L76.0656 256.581C76.0653 254.095 78.0971 252.063 80.5829 252.063L111.044 252.067C113.451 252.067 115.562 254.179 115.562 256.585L115.566 288.861L76.0694 288.857ZM113.234 254.415C112.642 253.823 111.853 253.507 111.064 253.507L80.6028 253.504C78.9061 253.503 77.5055 254.904 77.5058 256.601L77.5094 287.456L114.165 287.461L114.162 256.605C114.161 255.776 113.826 255.007 113.254 254.435L113.234 254.415Z" fill="#0E141E" stroke="#0E141E" stroke-miterlimit="10"/>
<path fill-rule="evenodd" clip-rule="evenodd" d="M111.866 292.192L78.5365 292.569C76.4336 292.593 73.4088 291.695 74.746 289.22L76.1234 286.705L114.412 286.271L115.713 288.776C117.15 291.497 113.949 292.188 111.846 292.212L111.866 292.192Z" fill="white" stroke="#0E141E" stroke-miterlimit="10"/>
<path d="M74.8007 291.801C74.3232 291.323 73.6454 290.29 74.4718 288.708L76.0067 285.82L115.13 285.969L116.687 288.868C117.385 290.159 117.151 291.07 116.856 291.604C115.95 293.147 113.335 293.295 112.264 293.291L78.9679 293.164C77.6202 293.159 75.7954 292.795 74.8206 291.821L74.8007 291.801ZM76.8842 287.25L75.7428 289.386C75.3296 290.158 75.5689 290.555 75.8076 290.794C76.3448 291.331 77.6345 291.712 78.9426 291.717L112.239 291.844C113.904 291.851 115.25 291.459 115.604 290.866C115.782 290.569 115.72 290.113 115.421 289.537L114.263 287.393L76.8445 287.25L76.8842 287.25Z" fill="#0E141E" stroke="#0E141E" stroke-miterlimit="10"/>
<path fill-rule="evenodd" clip-rule="evenodd" d="M110.919 42.0672L80.656 42.0948C78.5783 42.0967 76.8746 40.393 76.8765 38.3154L76.9051 6.95427L114.734 6.91972L114.706 38.2808C114.704 40.3585 112.997 42.0653 110.919 42.0672Z" fill="white" stroke="#0E141E" stroke-miterlimit="10"/>
<path d="M76.0694 5.92497L76.0656 38.201C76.0653 40.6868 78.0971 42.7186 80.5829 42.7183L111.044 42.7147C113.451 42.7144 115.562 40.6032 115.562 38.1963L115.566 5.92028L76.0694 5.92497ZM113.234 40.3667C112.642 40.9586 111.853 41.2744 111.064 41.2745L80.6028 41.2781C78.9061 41.2783 77.5055 39.8777 77.5058 38.1811L77.5094 7.32554L114.165 7.32117L114.162 38.1767C114.161 39.0053 113.826 39.7748 113.254 40.347L113.234 40.3667Z" fill="#0E141E" stroke="#0E141E" stroke-miterlimit="10"/>
<path fill-rule="evenodd" clip-rule="evenodd" d="M111.866 2.59015L78.5365 2.21292C76.4336 2.18912 73.4088 3.08719 74.746 5.56202L76.1234 8.07698L114.412 8.51034L115.713 6.00586C117.15 3.28472 113.949 2.59389 111.846 2.57009L111.866 2.59015Z" fill="white" stroke="#0E141E" stroke-miterlimit="10"/>
<path d="M74.8007 2.98103C74.3232 3.4585 73.6454 4.49167 74.4718 6.07404L76.0067 8.96177L115.13 8.81277L116.687 5.91327C117.385 4.62237 117.151 3.71159 116.856 3.1776C115.95 1.63517 113.335 1.48658 112.264 1.49065L78.9679 1.61747C77.6202 1.6226 75.7954 1.98629 74.8206 2.96113L74.8007 2.98103ZM76.8842 7.53146L75.7428 5.39535C75.3296 4.62399 75.5689 4.2267 75.8076 3.98796C76.3448 3.4508 77.6345 3.06933 78.9426 3.06435L112.239 2.93753C113.904 2.93119 115.25 3.32245 115.604 3.91567C115.782 4.21228 115.72 4.66835 115.421 5.24424L114.263 7.3891L76.8445 7.53161L76.8842 7.53146Z" fill="#0E141E" stroke="#0E141E" stroke-miterlimit="10"/>
<path fill-rule="evenodd" clip-rule="evenodd" d="M41.075 81.6362V111.927C41.075 114.007 39.3682 115.714 37.2887 115.714L5.89893 115.714V77.8498L37.2887 77.8498C39.3682 77.8498 41.075 79.5566 41.075 81.6362Z" fill="white" stroke="#0E141E" stroke-miterlimit="10"/>
<path d="M4.88662 116.532L37.1795 116.519C39.6666 116.518 41.7005 114.485 41.7015 111.997L41.7137 81.5206C41.7147 79.1124 39.6035 77.0012 37.1953 77.0022L4.90251 77.0152L4.88662 116.532ZM39.3657 79.3305C39.9576 79.9224 40.2731 80.7118 40.2728 81.5014L40.2606 111.978C40.2599 113.676 38.8578 115.078 37.1603 115.079L6.28866 115.091L6.30341 78.4161L37.175 78.4036C38.0041 78.4033 38.7738 78.7386 39.346 79.3108L39.3657 79.3305Z" fill="#0E141E" stroke="#0E141E" stroke-miterlimit="10"/>
<path fill-rule="evenodd" clip-rule="evenodd" d="M1.83033 80.4575L1.22621 114.014C1.18809 116.131 2.07184 119.17 4.57233 117.807L7.11349 116.404L7.80751 77.854L5.29492 76.5614C2.56514 75.133 1.84811 78.3606 1.81 80.4778L1.83033 80.4575Z" fill="white" stroke="#0E141E" stroke-miterlimit="10"/>
<path d="M1.981 117.763C2.45847 118.24 3.49385 118.916 5.09125 118.074L8.00656 116.512L8.10062 77.1456L5.19274 75.5971C3.89816 74.9022 2.98023 75.1437 2.44107 75.4441C0.88337 76.3652 0.71754 78.9979 0.714966 80.0748L0.634921 113.578C0.631681 114.934 0.986257 116.768 1.9611 117.743L1.981 117.763ZM6.5728 115.638L4.41626 116.8C3.6375 117.22 3.23923 116.982 3.00049 116.743C2.46333 116.206 2.08752 114.911 2.09067 113.595L2.17071 80.0913C2.17472 78.4161 2.57681 77.0591 3.17594 76.6987C3.47551 76.5185 3.93404 76.5772 4.51165 76.875L6.66267 78.0265L6.57271 115.678L6.5728 115.638Z" fill="#0E141E" stroke="#0E141E" stroke-miterlimit="10"/>
<path fill-rule="evenodd" clip-rule="evenodd" d="M41.075 171.745V202.036C41.075 204.116 39.3682 205.823 37.2887 205.823L5.89893 205.823V167.959L37.2887 167.959C39.3682 167.959 41.075 169.666 41.075 171.745Z" fill="white" stroke="#0E141E" stroke-miterlimit="10"/>
<path d="M4.88662 206.642L37.1795 206.629C39.6666 206.628 41.7005 204.594 41.7015 202.107L41.7137 171.63C41.7147 169.222 39.6035 167.11 37.1953 167.111L4.90251 167.124L4.88662 206.642ZM39.3657 169.44C39.9576 170.032 40.2731 170.821 40.2728 171.611L40.2606 202.087C40.2599 203.785 38.8578 205.187 37.1603 205.188L6.28866 205.2L6.30341 168.525L37.175 168.513C38.0041 168.512 38.7738 168.848 39.346 169.42L39.3657 169.44Z" fill="#0E141E" stroke="#0E141E" stroke-miterlimit="10"/>
<path fill-rule="evenodd" clip-rule="evenodd" d="M1.83033 170.567L1.22621 204.123C1.18809 206.24 2.07184 209.279 4.57233 207.916L7.11349 206.513L7.80751 167.963L5.29492 166.671C2.56514 165.242 1.84811 168.47 1.81 170.587L1.83033 170.567Z" fill="white" stroke="#0E141E" stroke-miterlimit="10"/>
<path d="M1.981 207.872C2.45847 208.349 3.49385 209.025 5.09125 208.184L8.00656 206.621L8.10062 167.255L5.19274 165.706C3.89816 165.011 2.98023 165.253 2.44107 165.553C0.88337 166.474 0.71754 169.107 0.714966 170.184L0.634921 203.687C0.631681 205.043 0.986257 206.877 1.9611 207.852L1.981 207.872ZM6.5728 205.747L4.41626 206.909C3.6375 207.329 3.23923 207.091 3.00049 206.852C2.46333 206.315 2.08752 205.02 2.09067 203.704L2.17071 170.2C2.17472 168.525 2.57681 167.168 3.17594 166.808C3.47551 166.628 3.93404 166.686 4.51165 166.984L6.66267 168.136L6.57271 205.787L6.5728 205.747Z" fill="#0E141E" stroke="#0E141E" stroke-miterlimit="10"/>
<rect x="50.7817" y="52" width="90" height="180" rx="45" fill="white" stroke="#0E141E" stroke-width="2"/>
<path d="M97.9922 134.508H98.3203V136.305H98.1875C97.5938 136.305 97.0651 136.393 96.6016 136.57C96.138 136.747 95.7448 137 95.4219 137.328C95.1042 137.651 94.8594 138.042 94.6875 138.5C94.5208 138.958 94.4375 139.471 94.4375 140.039V141.93C94.4375 142.336 94.4766 142.695 94.5547 143.008C94.638 143.315 94.7552 143.573 94.9062 143.781C95.0625 143.984 95.2448 144.138 95.4531 144.242C95.6615 144.341 95.8958 144.391 96.1562 144.391C96.401 144.391 96.6224 144.339 96.8203 144.234C97.0234 144.13 97.1953 143.984 97.3359 143.797C97.4818 143.604 97.5911 143.38 97.6641 143.125C97.7422 142.865 97.7812 142.581 97.7812 142.273C97.7812 141.966 97.7422 141.682 97.6641 141.422C97.5911 141.161 97.4818 140.938 97.3359 140.75C97.1901 140.557 97.013 140.409 96.8047 140.305C96.5964 140.201 96.362 140.148 96.1016 140.148C95.7474 140.148 95.4349 140.232 95.1641 140.398C94.8984 140.56 94.6901 140.768 94.5391 141.023C94.388 141.279 94.3073 141.547 94.2969 141.828L93.6172 141.391C93.6328 140.99 93.7161 140.609 93.8672 140.25C94.0234 139.891 94.237 139.573 94.5078 139.297C94.7839 139.016 95.1146 138.797 95.5 138.641C95.8854 138.479 96.3203 138.398 96.8047 138.398C97.3359 138.398 97.8021 138.5 98.2031 138.703C98.6094 138.906 98.9479 139.185 99.2188 139.539C99.4896 139.893 99.6927 140.302 99.8281 140.766C99.9635 141.229 100.031 141.724 100.031 142.25C100.031 142.802 99.9401 143.315 99.7578 143.789C99.5807 144.263 99.3229 144.677 98.9844 145.031C98.651 145.385 98.25 145.661 97.7812 145.859C97.3125 146.057 96.7865 146.156 96.2031 146.156C95.599 146.156 95.0495 146.047 94.5547 145.828C94.0651 145.604 93.6432 145.292 93.2891 144.891C92.9349 144.49 92.6615 144.013 92.4688 143.461C92.2812 142.909 92.1875 142.305 92.1875 141.648V140.773C92.1875 139.857 92.3203 139.018 92.5859 138.258C92.8568 137.492 93.2448 136.831 93.75 136.273C94.2552 135.711 94.8646 135.276 95.5781 134.969C96.2917 134.661 97.0964 134.508 97.9922 134.508Z" fill="#0E141E"/>
</svg>
