<svg width="230" height="92" viewBox="0 0 230 92" fill="none" xmlns="http://www.w3.org/2000/svg">
<g opacity="0.3">
<path fill-rule="evenodd" clip-rule="evenodd" d="M169.384 30.8623L169.356 61.1258C169.354 63.2034 171.058 64.9071 173.135 64.9052L204.497 64.8766L204.531 27.0473L173.17 27.0759C171.092 27.0778 169.386 28.7846 169.384 30.8623Z" fill="white" stroke="#0E141E" stroke-miterlimit="10"/>
<path d="M205.526 65.7123L173.25 65.7162C170.764 65.7165 168.732 63.6847 168.733 61.1989L168.736 30.7379C168.736 28.331 170.848 26.2198 173.255 26.2195L205.531 26.2156L205.526 65.7123ZM171.084 28.5477C170.492 29.1397 170.176 29.9288 170.176 30.718L170.173 61.179C170.172 62.8756 171.573 64.2762 173.27 64.276L204.125 64.2723L204.13 27.6165L173.274 27.6202C172.445 27.6203 171.676 27.9558 171.104 28.528L171.084 28.5477Z" fill="#0E141E" stroke="#0E141E" stroke-miterlimit="10"/>
<path fill-rule="evenodd" clip-rule="evenodd" d="M208.861 29.916L209.238 63.2452C209.262 65.3481 208.364 68.3729 205.889 67.0357L203.374 65.6584L202.94 27.3695L205.445 26.0688C208.166 24.6317 208.857 27.8332 208.881 29.9361L208.861 29.916Z" fill="white" stroke="#0E141E" stroke-miterlimit="10"/>
<path d="M208.47 66.981C207.992 67.4585 206.959 68.1363 205.377 67.3099L202.489 65.775L202.638 26.6518L205.538 25.0948C206.828 24.3963 207.739 24.6306 208.273 24.9259C209.816 25.8317 209.964 28.4472 209.96 29.5175L209.833 62.8139C209.828 64.1616 209.465 65.9863 208.49 66.9611L208.47 66.981ZM203.919 64.8975L206.055 66.0389C206.827 66.4522 207.224 66.2128 207.463 65.9741C208 65.4369 208.381 64.1473 208.386 62.8392L208.513 29.5428C208.52 27.878 208.128 26.5318 207.535 26.1773C207.239 26 206.782 26.0612 206.207 26.3607L204.062 27.5184L203.919 64.9372L203.919 64.8975Z" fill="#0E141E" stroke="#0E141E" stroke-miterlimit="10"/>
<path fill-rule="evenodd" clip-rule="evenodd" d="M59.988 30.8764V61.1236C59.988 63.2002 58.2837 64.9045 56.2071 64.9045L24.8629 64.9045V27.0955L56.2071 27.0955C58.2837 27.0955 59.988 28.7998 59.988 30.8764Z" fill="white" stroke="#0E141E" stroke-miterlimit="10"/>
<path d="M23.852 65.7221L56.0981 65.7091C58.5816 65.7081 60.6126 63.6771 60.6136 61.1936L60.6258 30.7609C60.6268 28.3563 58.5186 26.2481 56.1139 26.2491L23.8679 26.2621L23.852 65.7221ZM58.2811 28.574C58.8722 29.1651 59.1873 29.9534 59.187 30.7418L59.1747 61.1745C59.174 62.8696 57.774 64.2696 56.079 64.2703L25.252 64.2827L25.2668 27.6609L56.0937 27.6485C56.9215 27.6482 57.6901 27.983 58.2614 28.5543L58.2811 28.574Z" fill="#0E141E" stroke="#0E141E" stroke-miterlimit="10"/>
<path fill-rule="evenodd" clip-rule="evenodd" d="M20.8002 29.6994L20.197 63.2069C20.1589 65.321 21.0414 68.3557 23.5382 66.9948L26.0757 65.5933L26.7687 27.0997L24.2598 25.809C21.534 24.3826 20.818 27.6056 20.7799 29.7197L20.8002 29.6994Z" fill="white" stroke="#0E141E" stroke-miterlimit="10"/>
<path d="M20.9506 66.9506C21.4274 67.4274 22.4613 68.102 24.0564 67.2618L26.9675 65.7016L27.0614 26.3923L24.1577 24.846C22.865 24.1521 21.9484 24.3933 21.41 24.6933C19.8546 25.613 19.689 28.242 19.6864 29.3173L19.6065 62.772C19.6033 64.1261 19.9573 65.9573 20.9308 66.9307L20.9506 66.9506ZM25.5358 64.8288L23.3824 65.989C22.6047 66.409 22.207 66.171 21.9686 65.9326C21.4323 65.3962 21.057 64.1027 21.0601 62.7884L21.1401 29.3337C21.1441 27.661 21.5456 26.3059 22.1438 25.9461C22.443 25.7661 22.9008 25.8248 23.4776 26.1221L25.6255 27.2719L25.5357 64.8687L25.5358 64.8288Z" fill="#0E141E" stroke="#0E141E" stroke-miterlimit="10"/>
<rect x="70.0001" y="1" width="90" height="90" rx="45" fill="white" stroke="#0E141E" stroke-width="2"/>
<path d="M112.578 38.6016V50H110.328V41.1953L107.625 42.0547V40.2812L112.336 38.6016H112.578ZM121.766 38.6016V50H119.516V41.1953L116.812 42.0547V40.2812L121.523 38.6016H121.766Z" fill="#0E141E"/>
</g>
</svg>
