<svg width="230" height="92" viewBox="0 0 230 92" fill="none" xmlns="http://www.w3.org/2000/svg">
<g opacity="0.3">
<path fill-rule="evenodd" clip-rule="evenodd" d="M169.384 30.8623L169.356 61.1258C169.354 63.2034 171.058 64.9071 173.135 64.9052L204.497 64.8766L204.531 27.0473L173.17 27.0759C171.092 27.0778 169.386 28.7846 169.384 30.8623Z" fill="white" stroke="#0E141E" stroke-miterlimit="10"/>
<path d="M205.526 65.7123L173.25 65.7162C170.764 65.7165 168.732 63.6847 168.733 61.1989L168.736 30.7379C168.736 28.331 170.848 26.2198 173.255 26.2195L205.531 26.2157L205.526 65.7123ZM171.084 28.5477C170.492 29.1397 170.176 29.9288 170.176 30.718L170.173 61.179C170.172 62.8756 171.573 64.2762 173.27 64.276L204.125 64.2723L204.13 27.6165L173.274 27.6202C172.445 27.6203 171.676 27.9558 171.104 28.528L171.084 28.5477Z" fill="#0E141E" stroke="#0E141E" stroke-miterlimit="10"/>
<path fill-rule="evenodd" clip-rule="evenodd" d="M208.861 29.916L209.238 63.2452C209.262 65.3481 208.364 68.3729 205.889 67.0357L203.374 65.6584L202.94 27.3695L205.445 26.0688C208.166 24.6317 208.857 27.8332 208.881 29.9361L208.861 29.916Z" fill="white" stroke="#0E141E" stroke-miterlimit="10"/>
<path d="M208.47 66.981C207.992 67.4585 206.959 68.1363 205.377 67.3099L202.489 65.775L202.638 26.6518L205.538 25.0949C206.828 24.3963 207.739 24.6306 208.273 24.9259C209.816 25.8317 209.964 28.4472 209.96 29.5175L209.833 62.8139C209.828 64.1616 209.465 65.9863 208.49 66.9611L208.47 66.981ZM203.919 64.8976L206.055 66.0389C206.827 66.4522 207.224 66.2128 207.463 65.9741C208 65.437 208.381 64.1473 208.386 62.8392L208.513 29.5428C208.52 27.878 208.128 26.5318 207.535 26.1773C207.239 26 206.782 26.0612 206.207 26.3607L204.062 27.5184L203.919 64.9372L203.919 64.8976Z" fill="#0E141E" stroke="#0E141E" stroke-miterlimit="10"/>
<path fill-rule="evenodd" clip-rule="evenodd" d="M59.988 30.8764V61.1236C59.988 63.2002 58.2837 64.9045 56.2071 64.9045L24.8629 64.9045V27.0955L56.2071 27.0955C58.2837 27.0955 59.988 28.7998 59.988 30.8764Z" fill="white" stroke="#0E141E" stroke-miterlimit="10"/>
<path d="M23.852 65.7221L56.0981 65.7091C58.5816 65.7081 60.6126 63.6771 60.6136 61.1936L60.6258 30.7609C60.6268 28.3563 58.5186 26.2481 56.1139 26.2491L23.8679 26.2621L23.852 65.7221ZM58.2811 28.574C58.8722 29.1651 59.1873 29.9534 59.187 30.7418L59.1747 61.1745C59.174 62.8696 57.774 64.2696 56.079 64.2703L25.252 64.2827L25.2668 27.6609L56.0937 27.6485C56.9215 27.6482 57.6901 27.983 58.2614 28.5543L58.2811 28.574Z" fill="#0E141E" stroke="#0E141E" stroke-miterlimit="10"/>
<path fill-rule="evenodd" clip-rule="evenodd" d="M20.8002 29.6994L20.197 63.2069C20.1589 65.321 21.0414 68.3557 23.5382 66.9948L26.0757 65.5933L26.7687 27.0997L24.2598 25.809C21.534 24.3826 20.818 27.6056 20.7799 29.7197L20.8002 29.6994Z" fill="white" stroke="#0E141E" stroke-miterlimit="10"/>
<path d="M20.9506 66.9506C21.4274 67.4274 22.4613 68.102 24.0564 67.2618L26.9675 65.7016L27.0614 26.3923L24.1577 24.846C22.865 24.1521 21.9484 24.3933 21.41 24.6933C19.8546 25.613 19.689 28.242 19.6864 29.3173L19.6065 62.772C19.6033 64.1261 19.9573 65.9573 20.9308 66.9307L20.9506 66.9506ZM25.5358 64.8288L23.3824 65.989C22.6047 66.409 22.207 66.171 21.9686 65.9326C21.4323 65.3962 21.057 64.1027 21.0601 62.7884L21.1401 29.3337C21.1441 27.661 21.5456 26.3059 22.1438 25.9461C22.443 25.7661 22.9008 25.8248 23.4776 26.1221L25.6255 27.2719L25.5357 64.8687L25.5358 64.8288Z" fill="#0E141E" stroke="#0E141E" stroke-miterlimit="10"/>
<rect x="70.0001" y="1" width="90" height="90" rx="45" fill="white" stroke="#0E141E" stroke-width="2"/>
<path d="M111.547 38.625V50H109.211V38.625H111.547ZM115.047 38.625V40.4609H105.766V38.625H115.047ZM123.812 46.8828C123.812 47.5964 123.646 48.1979 123.312 48.6875C122.979 49.1719 122.521 49.5391 121.938 49.7891C121.359 50.0339 120.703 50.1562 119.969 50.1562C119.234 50.1562 118.576 50.0339 117.992 49.7891C117.409 49.5391 116.948 49.1719 116.609 48.6875C116.271 48.1979 116.102 47.5964 116.102 46.8828C116.102 46.4036 116.198 45.9714 116.391 45.5859C116.583 45.1953 116.852 44.862 117.195 44.5859C117.544 44.3047 117.953 44.0911 118.422 43.9453C118.891 43.7943 119.401 43.7188 119.953 43.7188C120.693 43.7188 121.354 43.849 121.938 44.1094C122.521 44.3698 122.979 44.737 123.312 45.2109C123.646 45.6849 123.812 46.2422 123.812 46.8828ZM121.547 46.7344C121.547 46.3854 121.479 46.0859 121.344 45.8359C121.214 45.5807 121.029 45.3854 120.789 45.25C120.549 45.1146 120.271 45.0469 119.953 45.0469C119.635 45.0469 119.357 45.1146 119.117 45.25C118.878 45.3854 118.69 45.5807 118.555 45.8359C118.424 46.0859 118.359 46.3854 118.359 46.7344C118.359 47.0781 118.424 47.375 118.555 47.625C118.69 47.875 118.878 48.0677 119.117 48.2031C119.362 48.3333 119.646 48.3984 119.969 48.3984C120.292 48.3984 120.57 48.3333 120.805 48.2031C121.044 48.0677 121.227 47.875 121.352 47.625C121.482 47.375 121.547 47.0781 121.547 46.7344ZM123.57 41.6406C123.57 42.2188 123.417 42.7318 123.109 43.1797C122.802 43.6224 122.375 43.9688 121.828 44.2188C121.286 44.4688 120.667 44.5938 119.969 44.5938C119.266 44.5938 118.641 44.4688 118.094 44.2188C117.547 43.9688 117.12 43.6224 116.812 43.1797C116.505 42.7318 116.352 42.2188 116.352 41.6406C116.352 40.9531 116.505 40.375 116.812 39.9062C117.125 39.4323 117.552 39.0729 118.094 38.8281C118.641 38.5833 119.26 38.4609 119.953 38.4609C120.656 38.4609 121.279 38.5833 121.82 38.8281C122.367 39.0729 122.794 39.4323 123.102 39.9062C123.414 40.375 123.57 40.9531 123.57 41.6406ZM121.32 41.7422C121.32 41.4349 121.266 41.1693 121.156 40.9453C121.047 40.7161 120.891 40.5391 120.688 40.4141C120.49 40.2891 120.245 40.2266 119.953 40.2266C119.672 40.2266 119.43 40.2865 119.227 40.4062C119.029 40.526 118.875 40.7005 118.766 40.9297C118.661 41.1536 118.609 41.4245 118.609 41.7422C118.609 42.0495 118.661 42.3203 118.766 42.5547C118.875 42.7839 119.031 42.9635 119.234 43.0938C119.438 43.224 119.682 43.2891 119.969 43.2891C120.255 43.2891 120.497 43.224 120.695 43.0938C120.898 42.9635 121.052 42.7839 121.156 42.5547C121.266 42.3203 121.32 42.0495 121.32 41.7422Z" fill="#0E141E"/>
</g>
</svg>
