<svg width="192" height="193" viewBox="0 0 192 193" fill="none" xmlns="http://www.w3.org/2000/svg">
<g opacity="0.3">
<path fill-rule="evenodd" clip-rule="evenodd" d="M150.496 81.6441L150.469 111.908C150.467 113.985 152.17 115.689 154.248 115.687L185.609 115.658L185.644 77.829L154.283 77.8577C152.205 77.8596 150.498 79.5664 150.496 81.6441Z" fill="white" stroke="#0E141E" stroke-miterlimit="10"/>
<path d="M186.639 116.494L154.362 116.498C151.877 116.498 149.845 114.466 149.845 111.981L149.849 81.5196C149.849 79.1127 151.96 77.0015 154.367 77.0012L186.643 76.9974L186.639 116.494ZM152.197 79.3295C151.605 79.9214 151.289 80.7106 151.289 81.4997L151.285 111.961C151.285 113.657 152.686 115.058 154.382 115.058L185.238 115.054L185.242 78.3983L154.387 78.402C153.558 78.4021 152.789 78.7375 152.216 79.3097L152.197 79.3295Z" fill="#0E141E" stroke="#0E141E" stroke-miterlimit="10"/>
<path fill-rule="evenodd" clip-rule="evenodd" d="M189.973 80.6978L190.351 114.027C190.374 116.13 189.476 119.155 187.002 117.817L184.487 116.44L184.053 78.1513L186.558 76.8506C189.279 75.4135 189.97 78.6149 189.993 80.7179L189.973 80.6978Z" fill="white" stroke="#0E141E" stroke-miterlimit="10"/>
<path d="M189.583 117.763C189.105 118.24 188.072 118.918 186.489 118.092L183.602 116.557L183.751 77.4335L186.65 75.8766C187.941 75.178 188.852 75.4124 189.386 75.7076C190.928 76.6134 191.077 79.229 191.073 80.2992L190.946 113.596C190.941 114.943 190.577 116.768 189.602 117.743L189.583 117.763ZM185.032 115.679L187.168 116.821C187.94 117.234 188.337 116.995 188.576 116.756C189.113 116.219 189.494 114.929 189.499 113.621L189.626 80.3245C189.632 78.6597 189.241 77.3135 188.648 76.959C188.351 76.7818 187.895 76.843 187.319 77.1425L185.174 78.3001L185.032 115.719L185.032 115.679Z" fill="#0E141E" stroke="#0E141E" stroke-miterlimit="10"/>
<path fill-rule="evenodd" clip-rule="evenodd" d="M110.919 151.496L80.656 151.468C78.5783 151.467 76.8746 153.17 76.8765 155.248L76.9051 186.609L114.734 186.644L114.706 155.282C114.704 153.205 112.997 151.498 110.919 151.496Z" fill="white" stroke="#0E141E" stroke-miterlimit="10"/>
<path d="M76.0694 187.638L76.0656 155.362C76.0653 152.876 78.0971 150.845 80.5829 150.845L111.044 150.849C113.451 150.849 115.562 152.96 115.562 155.367L115.566 187.643L76.0694 187.638ZM113.234 153.197C112.642 152.605 111.853 152.289 111.064 152.289L80.6028 152.285C78.9061 152.285 77.5055 153.685 77.5057 155.382L77.5094 186.238L114.165 186.242L114.162 155.387C114.161 154.558 113.826 153.788 113.254 153.216L113.234 153.197Z" fill="#0E141E" stroke="#0E141E" stroke-miterlimit="10"/>
<path fill-rule="evenodd" clip-rule="evenodd" d="M111.866 190.973L78.5364 191.35C76.4335 191.374 73.4087 190.476 74.7459 188.001L76.1233 185.486L114.412 185.053L115.713 187.557C117.15 190.278 113.948 190.969 111.846 190.993L111.866 190.973Z" fill="white" stroke="#0E141E" stroke-miterlimit="10"/>
<path d="M74.8006 190.582C74.3232 190.105 73.6454 189.072 74.4718 187.489L76.0066 184.601L115.13 184.75L116.687 187.65C117.385 188.941 117.151 189.852 116.856 190.386C115.95 191.928 113.334 192.077 112.264 192.073L78.9678 191.946C77.6201 191.941 75.7954 191.577 74.8205 190.602L74.8006 190.582ZM76.8841 186.032L75.7428 188.168C75.3295 188.939 75.5688 189.337 75.8076 189.575C76.3447 190.112 77.6344 190.494 78.9425 190.499L112.239 190.626C113.904 190.632 115.25 190.241 115.604 189.648C115.782 189.351 115.72 188.895 115.421 188.319L114.263 186.174L76.8445 186.032L76.8841 186.032Z" fill="#0E141E" stroke="#0E141E" stroke-miterlimit="10"/>
<path fill-rule="evenodd" clip-rule="evenodd" d="M110.919 42.0672L80.656 42.0948C78.5783 42.0967 76.8746 40.393 76.8765 38.3154L76.9051 6.95428L114.734 6.91972L114.706 38.2808C114.704 40.3585 112.997 42.0653 110.919 42.0672Z" fill="white" stroke="#0E141E" stroke-miterlimit="10"/>
<path d="M76.0694 5.92498L76.0656 38.201C76.0653 40.6868 78.0971 42.7186 80.5829 42.7183L111.044 42.7147C113.451 42.7144 115.562 40.6032 115.562 38.1963L115.566 5.92028L76.0694 5.92498ZM113.234 40.3667C112.642 40.9587 111.853 41.2744 111.064 41.2745L80.6028 41.2781C78.9061 41.2783 77.5055 39.8778 77.5057 38.1811L77.5094 7.32554L114.165 7.32118L114.162 38.1767C114.161 39.0053 113.826 39.7748 113.254 40.347L113.234 40.3667Z" fill="#0E141E" stroke="#0E141E" stroke-miterlimit="10"/>
<path fill-rule="evenodd" clip-rule="evenodd" d="M111.866 2.59016L78.5364 2.21293C76.4335 2.18913 73.4087 3.0872 74.7459 5.56203L76.1233 8.07699L114.412 8.51036L115.713 6.00587C117.15 3.28474 113.948 2.59391 111.846 2.5701L111.866 2.59016Z" fill="white" stroke="#0E141E" stroke-miterlimit="10"/>
<path d="M74.8006 2.98104C74.3232 3.45852 73.6454 4.49168 74.4718 6.07405L76.0066 8.96178L115.13 8.81278L116.687 5.91328C117.385 4.62238 117.151 3.7116 116.856 3.17761C115.95 1.63518 113.334 1.48659 112.264 1.49066L78.9678 1.61748C77.6201 1.62261 75.7954 1.9863 74.8205 2.96114L74.8006 2.98104ZM76.8841 7.53147L75.7428 5.39537C75.3295 4.624 75.5688 4.22671 75.8076 3.98797C76.3447 3.45081 77.6344 3.06934 78.9425 3.06436L112.239 2.93755C113.904 2.93121 115.25 3.32247 115.604 3.91569C115.782 4.2123 115.72 4.66836 115.421 5.24425L114.263 7.38911L76.8445 7.53162L76.8841 7.53147Z" fill="#0E141E" stroke="#0E141E" stroke-miterlimit="10"/>
<path fill-rule="evenodd" clip-rule="evenodd" d="M41.075 81.6362V111.927C41.075 114.007 39.3682 115.714 37.2887 115.714L5.89893 115.714V77.8498L37.2887 77.8498C39.3682 77.8498 41.075 79.5566 41.075 81.6362Z" fill="white" stroke="#0E141E" stroke-miterlimit="10"/>
<path d="M4.88662 116.532L37.1795 116.519C39.6666 116.518 41.7005 114.485 41.7015 111.997L41.7137 81.5206C41.7147 79.1124 39.6035 77.0012 37.1953 77.0022L4.90251 77.0152L4.88662 116.532ZM39.3657 79.3305C39.9576 79.9224 40.2731 80.7119 40.2728 81.5014L40.2606 111.978C40.2599 113.676 38.8578 115.078 37.1603 115.079L6.28866 115.091L6.30341 78.4161L37.175 78.4036C38.0041 78.4033 38.7738 78.7386 39.346 79.3108L39.3657 79.3305Z" fill="#0E141E" stroke="#0E141E" stroke-miterlimit="10"/>
<path fill-rule="evenodd" clip-rule="evenodd" d="M1.83042 80.4575L1.2263 114.014C1.18818 116.131 2.07193 119.17 4.57242 117.807L7.11358 116.404L7.8076 77.854L5.29502 76.5614C2.56523 75.133 1.8482 78.3606 1.81009 80.4779L1.83042 80.4575Z" fill="white" stroke="#0E141E" stroke-miterlimit="10"/>
<path d="M1.98106 117.763C2.45853 118.24 3.49392 118.916 5.09131 118.074L8.00663 116.512L8.10068 77.1456L5.19281 75.5971C3.89822 74.9022 2.98029 75.1437 2.44113 75.4441C0.883432 76.3652 0.717601 78.9979 0.715027 80.0748L0.634982 113.578C0.631743 114.934 0.986318 116.768 1.96116 117.743L1.98106 117.763ZM6.57287 115.638L4.41632 116.8C3.63756 117.22 3.23929 116.982 3.00055 116.743C2.46339 116.206 2.08758 114.911 2.09073 113.595L2.17077 80.0913C2.17478 78.4161 2.57687 77.0591 3.176 76.6987C3.47557 76.5185 3.9341 76.5772 4.51171 76.875L6.66273 78.0265L6.57277 115.678L6.57287 115.638Z" fill="#0E141E" stroke="#0E141E" stroke-miterlimit="10"/>
<rect x="51" y="52" width="90" height="90" rx="45" fill="white" stroke="#0E141E" stroke-width="2"/>
<path d="M93.7812 99.2891H93.9297C94.5547 99.2891 95.0911 99.2135 95.5391 99.0625C95.9922 98.9062 96.3646 98.6823 96.6562 98.3906C96.9479 98.099 97.1641 97.7422 97.3047 97.3203C97.4453 96.8932 97.5156 96.4089 97.5156 95.8672V93.7109C97.5156 93.2995 97.474 92.9375 97.3906 92.625C97.3125 92.3125 97.1979 92.0547 97.0469 91.8516C96.901 91.6432 96.7292 91.487 96.5312 91.3828C96.3385 91.2786 96.125 91.2266 95.8906 91.2266C95.6406 91.2266 95.4193 91.2891 95.2266 91.4141C95.0339 91.5339 94.8698 91.6979 94.7344 91.9062C94.6042 92.1146 94.5026 92.3542 94.4297 92.625C94.362 92.8906 94.3281 93.1693 94.3281 93.4609C94.3281 93.7526 94.362 94.0312 94.4297 94.2969C94.4974 94.5573 94.599 94.7891 94.7344 94.9922C94.8698 95.1901 95.0391 95.349 95.2422 95.4688C95.4453 95.5833 95.6849 95.6406 95.9609 95.6406C96.2266 95.6406 96.4635 95.5911 96.6719 95.4922C96.8854 95.388 97.0651 95.2526 97.2109 95.0859C97.362 94.9193 97.4766 94.7344 97.5547 94.5312C97.638 94.3281 97.6797 94.1224 97.6797 93.9141L98.4219 94.3203C98.4219 94.6849 98.3438 95.0443 98.1875 95.3984C98.0312 95.7526 97.8125 96.0755 97.5312 96.3672C97.2552 96.6536 96.9349 96.8828 96.5703 97.0547C96.2057 97.2266 95.8151 97.3125 95.3984 97.3125C94.8672 97.3125 94.3958 97.2161 93.9844 97.0234C93.5729 96.8255 93.224 96.5547 92.9375 96.2109C92.6562 95.862 92.4427 95.4557 92.2969 94.9922C92.151 94.5286 92.0781 94.026 92.0781 93.4844C92.0781 92.9323 92.1667 92.4141 92.3438 91.9297C92.526 91.4453 92.7839 91.0182 93.1172 90.6484C93.4557 90.2786 93.8594 89.9896 94.3281 89.7812C94.8021 89.5677 95.3281 89.4609 95.9062 89.4609C96.4844 89.4609 97.0104 89.5729 97.4844 89.7969C97.9583 90.0208 98.3646 90.3385 98.7031 90.75C99.0417 91.1562 99.3021 91.6432 99.4844 92.2109C99.6719 92.7786 99.7656 93.4089 99.7656 94.1016V94.8828C99.7656 95.6224 99.6849 96.3099 99.5234 96.9453C99.3672 97.5807 99.1302 98.1562 98.8125 98.6719C98.5 99.1823 98.1094 99.6198 97.6406 99.9844C97.1771 100.349 96.638 100.628 96.0234 100.82C95.4089 101.013 94.7214 101.109 93.9609 101.109H93.7812V99.2891Z" fill="#0E141E"/>
</g>
</svg>
