<svg width="26" height="26" viewBox="0 0 26 26" fill="none" xmlns="http://www.w3.org/2000/svg">
<rect x="3.82352" y="3.82352" width="18.3529" height="18.3529" rx="9.17647" fill="white" stroke="#0E141E" stroke-width="1.5"/>
<path d="M22.1765 10.4118C22.1765 9.89196 22.5979 9.47058 23.1177 9.47058C24.1573 9.47058 25 10.3133 25 11.3529V14.6471C25 15.6866 24.1573 16.5294 23.1177 16.5294C22.5979 16.5294 22.1765 16.108 22.1765 15.5882V10.4118Z" fill="white" stroke="#0E141E" stroke-width="1.5"/>
<path d="M10.4118 3.82352C9.89196 3.82352 9.47058 3.40214 9.47058 2.88234C9.47058 1.84275 10.3133 0.999987 11.3529 0.999987H14.6471C15.6866 0.999987 16.5294 1.84275 16.5294 2.88234C16.5294 3.40214 16.108 3.82352 15.5882 3.82352H10.4118Z" fill="white" stroke="#0E141E" stroke-width="1.5"/>
<path d="M15.5882 25C16.108 25 16.5294 24.5786 16.5294 24.0588C16.5294 23.0192 15.6867 22.1765 14.6471 22.1765H11.3529C10.3134 22.1765 9.4706 23.0192 9.4706 24.0588C9.4706 24.5786 9.89197 25 10.4118 25H15.5882Z" fill="white" stroke="#0E141E" stroke-width="1.5"/>
<path d="M3.82352 10.4118C3.82352 9.89196 3.40214 9.47058 2.88234 9.47058C1.84275 9.47058 0.999987 10.3133 0.999987 11.3529V14.6471C0.999987 15.6866 1.84275 16.5294 2.88234 16.5294C3.40214 16.5294 3.82352 16.108 3.82352 15.5882V10.4118Z" fill="white" stroke="#0E141E" stroke-width="1.5"/>
</svg>
