<svg width="38" height="38" viewBox="0 0 38 38" fill="none" xmlns="http://www.w3.org/2000/svg">
<path d="M11 25.58C11 22.858 14.686 22.18 19 22.18C23.339 22.18 27 22.88 27 25.604C27 28.328 23.315 29.005 19 29.005C14.662 29.005 11 28.305 11 25.58ZM13.706 14.296C13.7056 13.2489 14.0158 12.2251 14.5972 11.3543C15.1787 10.4834 16.0054 9.80456 16.9727 9.40356C17.94 9.00256 19.0045 8.89744 20.0316 9.10148C21.0586 9.30553 22.0021 9.80957 22.7427 10.5499C23.4833 11.2902 23.9877 12.2335 24.1921 13.2605C24.3966 14.2874 24.2918 15.352 23.8912 16.3195C23.4906 17.2869 22.812 18.1139 21.9414 18.6957C21.0708 19.2775 20.0471 19.588 19 19.588C18.3042 19.5906 17.6148 19.4556 16.9714 19.1906C16.3281 18.9256 15.7435 18.5359 15.2514 18.044C14.7593 17.5521 14.3694 16.9677 14.1042 16.3244C13.8389 15.6812 13.7036 14.9918 13.706 14.296Z" fill="black"/>
<circle cx="19" cy="19" r="17.5" stroke="black" stroke-width="3"/>
</svg>
